<!-- <svg id="Layer_1" data-name="Layer 1" xmlns="http://www.w3.org/2000/svg" viewBox="0 0 64 64"><defs><style>.cls-1{fill:#41e1f2;}</style></defs><title>Footer</title><path class="cls-1" d="M28.14,31.27l-.67.08a4.19,4.19,0,0,1-.61,0,.66.66,0,0,1-.54-1.08,7.87,7.87,0,0,1,.89-.94A22.07,22.07,0,0,1,31,26.58a3.21,3.21,0,0,1,3.53.05,4.1,4.1,0,0,1,2.17,3.72c0,4.49,0,9,0,13.48a.69.69,0,0,0,.3.62,1.54,1.54,0,0,1,.2,2.62,7.74,7.74,0,0,1-4.61,2.15,4.22,4.22,0,0,1-4.45-4.29c0-4.39,0-8.77,0-13.16Z"/><path class="cls-1" d="M32,23.76a4.5,4.5,0,1,1,4.5-4.5A4.48,4.48,0,0,1,32,23.76Z"/></svg> -->

<svg id="Layer_1" data-name="Layer 1" xmlns="http://www.w3.org/2000/svg" viewBox="0 0 64 64"><defs><style>.cls-1{fill:#58595B;}</style></defs><title>Footer</title><path class="cls-1" d="M28.14,31.27l-.67.08a4.19,4.19,0,0,1-.61,0,.66.66,0,0,1-.54-1.08,7.87,7.87,0,0,1,.89-.94A22.07,22.07,0,0,1,31,26.58a3.21,3.21,0,0,1,3.53.05,4.1,4.1,0,0,1,2.17,3.72c0,4.49,0,9,0,13.48a.69.69,0,0,0,.3.62,1.54,1.54,0,0,1,.2,2.62,7.74,7.74,0,0,1-4.61,2.15,4.22,4.22,0,0,1-4.45-4.29c0-4.39,0-8.77,0-13.16Z"/><path class="cls-1" d="M32,23.76a4.5,4.5,0,1,1,4.5-4.5A4.48,4.48,0,0,1,32,23.76Z"/></svg>
