<!-- <svg id="Layer_1" data-name="Layer 1" xmlns="http://www.w3.org/2000/svg" viewBox="0 0 64 64"><defs><style>.cls-1{fill:#41e1f2;}</style></defs><title>Footer</title><path class="cls-1" d="M7.91,46.81H2.41V45H9.74V55.17h.6c4.19,0,8.37,0,12.56,0A9.32,9.32,0,0,0,25,54.79c3.25-.8,6.49-1.63,9.73-2.45l6.75-1.71c1.69-.42,3.38-.86,5.07-1.26a5,5,0,0,0,1.62-.85c2.3-1.47,4.59-3,6.89-4.46L59,41.53a1.65,1.65,0,1,0-1.82-2.76l-2.55,1.72L49.47,44c-.3.2-.62.38-.9.61a1.76,1.76,0,0,1-1.23.39H31.11V43.13h6.33a2.78,2.78,0,0,0,2.9-2.88v-.87H38.6c-4.22,0-8.44,0-12.65,0a5.39,5.39,0,0,0-3.39,1.15c-.95.73-2,1.37-2.93,2.07s-2.14,1.54-3.21,2.32l-2.56,1.82a.31.31,0,0,1-.16.06h-3V45c.72,0,1.43,0,2.13,0a1.11,1.11,0,0,0,.59-.18c2.22-1.57,4.42-3.14,6.63-4.72.62-.44,1.24-.89,1.87-1.32a6.13,6.13,0,0,1,3.58-1.17H41.83c.27,0,.35.08.34.34,0,.81,0,1.63,0,2.43a12.2,12.2,0,0,1-.3,1.67,2.05,2.05,0,0,1-.14.38l1.27-.8,4.9-3.18c.64-.41,1.28-.83,1.93-1.23a3.43,3.43,0,0,1,4.69,1l.13.15,1.54-1a3.41,3.41,0,0,1,4.08.1A3.52,3.52,0,0,1,61.49,41a3.36,3.36,0,0,1-1.42,2l-5,3.25q-2.46,1.6-4.93,3.2c-.7.46-1.4.94-2.13,1.36a4.81,4.81,0,0,1-1.13.36l-9.6,2.41c-4.11,1-8.21,2.07-12.31,3.12a10.62,10.62,0,0,1-2.63.3c-4,0-8,0-12,0H9.76v3.69H2.4V58.88H7.91Zm45.16-7.48a1.58,1.58,0,0,0-2.37-.55q-3.2,2-6.37,4.1l-.24.19c1.12.07,2.2.08,3.28.07A.89.89,0,0,0,47.7,43l3.16-2.15Z"/><path class="cls-1" d="M45.88,10.71h1.81V12.9a23.58,23.58,0,0,1,2.83-.32,22.72,22.72,0,0,1,2.79.32V10.72h1.81a2.65,2.65,0,0,1,0,.27c0,.89,0,1.78,0,2.67a.51.51,0,0,0,.24.48,7.8,7.8,0,0,1,2,2.12A8.31,8.31,0,0,1,47.36,28.57a8.05,8.05,0,0,1-4.84-5.39,8.2,8.2,0,0,1-.19-3.72,8.08,8.08,0,0,1,1.84-4,9.6,9.6,0,0,1,1.41-1.29.72.72,0,0,0,.31-.62c0-.82,0-1.64,0-2.47ZM57,20.86a6.5,6.5,0,1,0-6.48,6.52A6.5,6.5,0,0,0,57,20.86Z"/><path class="cls-1" d="M24.59,18.11H26.4v2.35c.63.36,1.21.65,1.74,1a6.09,6.09,0,0,1,.87.82c.15.15.26.16.41,0a5.29,5.29,0,0,1,2.43-1.65c.08,0,.15-.18.15-.28,0-.62,0-1.23,0-1.85v-.38h1.78c0,.11,0,.23,0,.35,0,.61,0,1.21,0,1.81a.28.28,0,0,0,.26.33,4.45,4.45,0,0,1,2.48,7.12c-.67.8-1.44,1.52-2.18,2.26-1.18,1.19-2.37,2.36-3.55,3.55-.52.52-1,1.06-1.56,1.62-.23-.21-.42-.38-.6-.56-2.14-2.15-4.29-4.29-6.42-6.44a4.45,4.45,0,0,1,.13-6.52,4,4,0,0,1,1.94-1c.22-.05.29-.14.29-.37C24.58,19.55,24.59,18.85,24.59,18.11Zm4.63,7L29,24.8c-.6-.59-1.18-1.2-1.79-1.78a2.52,2.52,0,0,0-2.57-.59,2.64,2.64,0,0,0-1.13,4.36c1.42,1.46,2.87,2.9,4.31,4.34l1.45,1.42.35-.36,4.89-4.87a6.42,6.42,0,0,0,.82-.91,2.65,2.65,0,0,0-4.1-3.31Z"/><path class="cls-1" d="M49.62,10.66V7H51.4v3.64Z"/><path class="cls-1" d="M28.32,14.42H30.1v3.66H28.48c-.06,0-.15-.11-.16-.17Z"/><path class="cls-1" d="M47.67,8.81H45.9V7h1.77Z"/><path class="cls-1" d="M53.34,7h1.78v1.8H53.34Z"/><path class="cls-1" d="M41.27,31.09V29.26h1.84v1.81H41.26Z"/><path class="cls-1" d="M41.27,32.92H39.45V31.09h1.82v1.84Z"/><path class="cls-1" d="M43.11,31.09h1.81v1.83h-1.8V31.09Z"/><path class="cls-1" d="M43.11,32.92v1.82H41.27V32.92h1.84Z"/><path class="cls-1" d="M49.63,3.31h1.78v1.8H49.63Z"/><path class="cls-1" d="M37.6,9.83c0,.46-.06.93-.05,1.39s-.1.43-.42.41-.91,0-1.39,0V9.83Z"/><path class="cls-1" d="M24.59,16.21c0-.55,0-1.08,0-1.61,0-.07.14-.18.21-.18.52,0,1,0,1.59,0v1.8Z"/><path class="cls-1" d="M35.73,7.9V6.07c.55,0,1.1,0,1.64,0,.06,0,.16.13.16.2,0,.46,0,.93,0,1.4,0,.07-.14.2-.22.21C36.8,7.91,36.29,7.9,35.73,7.9Z"/><path class="cls-1" d="M4.19,57H2.42v-1.8H4.19Z"/><path class="cls-1" d="M37.6,9.83V7.94h1.68s.11.11.11.17c0,.47,0,1,0,1.43a.35.35,0,0,1-.27.19c-.43,0-.86,0-1.29,0a1,1,0,0,0-.23.07Z"/><path class="cls-1" d="M28.33,12.5V10.72h1.78V12.5Z"/><path class="cls-1" d="M33.81,16.23c-.57,0-1.08,0-1.59,0A.34.34,0,0,1,32,16c0-.46,0-.91,0-1.37,0-.07.14-.21.21-.21.47,0,.93,0,1.4,0,.06,0,.17.12.18.18C33.82,15.12,33.81,15.65,33.81,16.23Z"/><path class="cls-1" d="M35.68,9.75c-.57,0-1.1,0-1.63,0a.27.27,0,0,1-.19-.2c0-.47,0-.94,0-1.4a.33.33,0,0,1,.2-.2c.52,0,1,0,1.62,0V9.75Z"/><path class="cls-1" d="M45.88,20.91h1.78a3.16,3.16,0,0,0,1.21,2.23,2.69,2.69,0,0,0,1.73.53c1.47-.05,2.36-1,2.75-2.76h1.8a4.53,4.53,0,0,1-2.38,4,4.43,4.43,0,0,1-4.94-.26A4.66,4.66,0,0,1,45.88,20.91Z"/><path class="cls-1" d="M51.46,18.12h1.83c0,.56,0,1.1,0,1.64,0,.06-.11.16-.16.17-.49,0-1,0-1.47,0a.24.24,0,0,1-.18-.17C51.45,19.21,51.46,18.68,51.46,18.12Z"/><path class="cls-1" d="M47.77,19.93V18.1c.56,0,1.09,0,1.62,0a.24.24,0,0,1,.17.18c0,.47,0,.95,0,1.43a.3.3,0,0,1-.22.2C48.83,19.94,48.32,19.93,47.77,19.93Z"/></svg> -->

<svg id="Layer_1" data-name="Layer 1" xmlns="http://www.w3.org/2000/svg" viewBox="0 0 64 64"><defs><style>.cls-1{fill:#58595B;}</style></defs><title>Footer</title><path class="cls-1" d="M7.91,46.81H2.41V45H9.74V55.17h.6c4.19,0,8.37,0,12.56,0A9.32,9.32,0,0,0,25,54.79c3.25-.8,6.49-1.63,9.73-2.45l6.75-1.71c1.69-.42,3.38-.86,5.07-1.26a5,5,0,0,0,1.62-.85c2.3-1.47,4.59-3,6.89-4.46L59,41.53a1.65,1.65,0,1,0-1.82-2.76l-2.55,1.72L49.47,44c-.3.2-.62.38-.9.61a1.76,1.76,0,0,1-1.23.39H31.11V43.13h6.33a2.78,2.78,0,0,0,2.9-2.88v-.87H38.6c-4.22,0-8.44,0-12.65,0a5.39,5.39,0,0,0-3.39,1.15c-.95.73-2,1.37-2.93,2.07s-2.14,1.54-3.21,2.32l-2.56,1.82a.31.31,0,0,1-.16.06h-3V45c.72,0,1.43,0,2.13,0a1.11,1.11,0,0,0,.59-.18c2.22-1.57,4.42-3.14,6.63-4.72.62-.44,1.24-.89,1.87-1.32a6.13,6.13,0,0,1,3.58-1.17H41.83c.27,0,.35.08.34.34,0,.81,0,1.63,0,2.43a12.2,12.2,0,0,1-.3,1.67,2.05,2.05,0,0,1-.14.38l1.27-.8,4.9-3.18c.64-.41,1.28-.83,1.93-1.23a3.43,3.43,0,0,1,4.69,1l.13.15,1.54-1a3.41,3.41,0,0,1,4.08.1A3.52,3.52,0,0,1,61.49,41a3.36,3.36,0,0,1-1.42,2l-5,3.25q-2.46,1.6-4.93,3.2c-.7.46-1.4.94-2.13,1.36a4.81,4.81,0,0,1-1.13.36l-9.6,2.41c-4.11,1-8.21,2.07-12.31,3.12a10.62,10.62,0,0,1-2.63.3c-4,0-8,0-12,0H9.76v3.69H2.4V58.88H7.91Zm45.16-7.48a1.58,1.58,0,0,0-2.37-.55q-3.2,2-6.37,4.1l-.24.19c1.12.07,2.2.08,3.28.07A.89.89,0,0,0,47.7,43l3.16-2.15Z"/><path class="cls-1" d="M45.88,10.71h1.81V12.9a23.58,23.58,0,0,1,2.83-.32,22.72,22.72,0,0,1,2.79.32V10.72h1.81a2.65,2.65,0,0,1,0,.27c0,.89,0,1.78,0,2.67a.51.51,0,0,0,.24.48,7.8,7.8,0,0,1,2,2.12A8.31,8.31,0,0,1,47.36,28.57a8.05,8.05,0,0,1-4.84-5.39,8.2,8.2,0,0,1-.19-3.72,8.08,8.08,0,0,1,1.84-4,9.6,9.6,0,0,1,1.41-1.29.72.72,0,0,0,.31-.62c0-.82,0-1.64,0-2.47ZM57,20.86a6.5,6.5,0,1,0-6.48,6.52A6.5,6.5,0,0,0,57,20.86Z"/><path class="cls-1" d="M24.59,18.11H26.4v2.35c.63.36,1.21.65,1.74,1a6.09,6.09,0,0,1,.87.82c.15.15.26.16.41,0a5.29,5.29,0,0,1,2.43-1.65c.08,0,.15-.18.15-.28,0-.62,0-1.23,0-1.85v-.38h1.78c0,.11,0,.23,0,.35,0,.61,0,1.21,0,1.81a.28.28,0,0,0,.26.33,4.45,4.45,0,0,1,2.48,7.12c-.67.8-1.44,1.52-2.18,2.26-1.18,1.19-2.37,2.36-3.55,3.55-.52.52-1,1.06-1.56,1.62-.23-.21-.42-.38-.6-.56-2.14-2.15-4.29-4.29-6.42-6.44a4.45,4.45,0,0,1,.13-6.52,4,4,0,0,1,1.94-1c.22-.05.29-.14.29-.37C24.58,19.55,24.59,18.85,24.59,18.11Zm4.63,7L29,24.8c-.6-.59-1.18-1.2-1.79-1.78a2.52,2.52,0,0,0-2.57-.59,2.64,2.64,0,0,0-1.13,4.36c1.42,1.46,2.87,2.9,4.31,4.34l1.45,1.42.35-.36,4.89-4.87a6.42,6.42,0,0,0,.82-.91,2.65,2.65,0,0,0-4.1-3.31Z"/><path class="cls-1" d="M49.62,10.66V7H51.4v3.64Z"/><path class="cls-1" d="M28.32,14.42H30.1v3.66H28.48c-.06,0-.15-.11-.16-.17Z"/><path class="cls-1" d="M47.67,8.81H45.9V7h1.77Z"/><path class="cls-1" d="M53.34,7h1.78v1.8H53.34Z"/><path class="cls-1" d="M41.27,31.09V29.26h1.84v1.81H41.26Z"/><path class="cls-1" d="M41.27,32.92H39.45V31.09h1.82v1.84Z"/><path class="cls-1" d="M43.11,31.09h1.81v1.83h-1.8V31.09Z"/><path class="cls-1" d="M43.11,32.92v1.82H41.27V32.92h1.84Z"/><path class="cls-1" d="M49.63,3.31h1.78v1.8H49.63Z"/><path class="cls-1" d="M37.6,9.83c0,.46-.06.93-.05,1.39s-.1.43-.42.41-.91,0-1.39,0V9.83Z"/><path class="cls-1" d="M24.59,16.21c0-.55,0-1.08,0-1.61,0-.07.14-.18.21-.18.52,0,1,0,1.59,0v1.8Z"/><path class="cls-1" d="M35.73,7.9V6.07c.55,0,1.1,0,1.64,0,.06,0,.16.13.16.2,0,.46,0,.93,0,1.4,0,.07-.14.2-.22.21C36.8,7.91,36.29,7.9,35.73,7.9Z"/><path class="cls-1" d="M4.19,57H2.42v-1.8H4.19Z"/><path class="cls-1" d="M37.6,9.83V7.94h1.68s.11.11.11.17c0,.47,0,1,0,1.43a.35.35,0,0,1-.27.19c-.43,0-.86,0-1.29,0a1,1,0,0,0-.23.07Z"/><path class="cls-1" d="M28.33,12.5V10.72h1.78V12.5Z"/><path class="cls-1" d="M33.81,16.23c-.57,0-1.08,0-1.59,0A.34.34,0,0,1,32,16c0-.46,0-.91,0-1.37,0-.07.14-.21.21-.21.47,0,.93,0,1.4,0,.06,0,.17.12.18.18C33.82,15.12,33.81,15.65,33.81,16.23Z"/><path class="cls-1" d="M35.68,9.75c-.57,0-1.1,0-1.63,0a.27.27,0,0,1-.19-.2c0-.47,0-.94,0-1.4a.33.33,0,0,1,.2-.2c.52,0,1,0,1.62,0V9.75Z"/><path class="cls-1" d="M45.88,20.91h1.78a3.16,3.16,0,0,0,1.21,2.23,2.69,2.69,0,0,0,1.73.53c1.47-.05,2.36-1,2.75-2.76h1.8a4.53,4.53,0,0,1-2.38,4,4.43,4.43,0,0,1-4.94-.26A4.66,4.66,0,0,1,45.88,20.91Z"/><path class="cls-1" d="M51.46,18.12h1.83c0,.56,0,1.1,0,1.64,0,.06-.11.16-.16.17-.49,0-1,0-1.47,0a.24.24,0,0,1-.18-.17C51.45,19.21,51.46,18.68,51.46,18.12Z"/><path class="cls-1" d="M47.77,19.93V18.1c.56,0,1.09,0,1.62,0a.24.24,0,0,1,.17.18c0,.47,0,.95,0,1.43a.3.3,0,0,1-.22.2C48.83,19.94,48.32,19.93,47.77,19.93Z"/></svg>
