<svg id="Layer_1" data-name="Layer 1" xmlns="http://www.w3.org/2000/svg" viewBox="0 0 64 64"><defs><style>.cls-1{fill:#41e1f2;}.cls-2{fill:none;stroke:#41e1f2;stroke-miterlimit:10;stroke-width:2.57px;}</style></defs><title>Footer</title><path class="cls-1" d="M27,13.85a10.7,10.7,0,1,1-6,13.68A10.72,10.72,0,0,1,27,13.85ZM33.74,31.3a8,8,0,1,0-10.27-4.73A8,8,0,0,0,33.74,31.3Z"/><path class="cls-1" d="M16.13,56a2.39,2.39,0,0,0,1.35-1.19c2-3.84,9.24-17.9,11.23-21.74.15-.3.09-.44-.21-.55a15,15,0,0,1-3.69-1.89c-.26-.19-.41-.17-.57.13C22.29,34.58,15,48.6,13.09,52.41a2.51,2.51,0,0,0,3,3.6Z"/><path class="cls-2" d="M-9.86,44.63s7-21,30.89-6.34c20.35,12.46,27.38-10.67,29-17.7a19.83,19.83,0,0,1,3.44-7.47c3.46-4.54,10-9,20.38-.35"/></svg>