<svg id="Layer_1" data-name="Layer 1" xmlns="http://www.w3.org/2000/svg" viewBox="0 0 64 64"><defs><style>.cls-1{fill:#41e1f2;}</style></defs><title>Footer</title><path class="cls-1" d="M19.28,41.85H13A4.5,4.5,0,0,1,8.5,37.26V15.07a4.49,4.49,0,0,1,4.66-4.67H50.79a4.49,4.49,0,0,1,4.71,4.72V37.26a4.5,4.5,0,0,1-4.59,4.59H34.22a1.25,1.25,0,0,0-1,.39q-5.47,5.37-11,10.71a1.8,1.8,0,0,1-1.63.64,1.66,1.66,0,0,1-1.38-1.82c0-3.08,0-6.16,0-9.24ZM22.57,48l.52-.5q4.26-4.12,8.49-8.27a2.38,2.38,0,0,1,1.78-.73c5.79,0,11.57,0,17.36,0,1,0,1.45-.4,1.45-1.41V15.28c0-1.22-.34-1.55-1.56-1.55H13.25c-1,0-1.42.39-1.42,1.43V37c0,1.1.39,1.48,1.48,1.48,2.52,0,5,0,7.56,0a1.62,1.62,0,0,1,1.7,1.72c0,1.47,0,2.94,0,4.41Z"/><path class="cls-1" d="M45.88,30.11c.33.34.61.6.88.88a1.28,1.28,0,0,1-.49,2.17,2.2,2.2,0,0,1-2.5-.5,6,6,0,0,1-.43-.45.83.83,0,0,0-.87-.3,5.62,5.62,0,0,1-6.68-5.71,6,6,0,0,1,2.33-5.29,5.75,5.75,0,0,1,6.1-.58,5.34,5.34,0,0,1,3.1,4.82A6.53,6.53,0,0,1,45.88,30.11Zm-1.82-4.28a14.34,14.34,0,0,0-.3-1.57,2.1,2.1,0,0,0-2-1.58A2.21,2.21,0,0,0,39.53,24a4.4,4.4,0,0,0-.17,3.36,2.31,2.31,0,0,0,4.5-.17A12.14,12.14,0,0,0,44.06,25.83Z"/><path class="cls-1" d="M29.36,20H30a1.34,1.34,0,0,1,1.4,1Q33,25.46,34.64,30a1.29,1.29,0,0,1-.92,1.76,1.78,1.78,0,0,1-2.34-1.23c-.41-1.25-.41-1.25-1.73-1.24-.49,0-1,0-1.47,0s-.63.13-.71.55c-.06.27-.17.53-.25.79a1.81,1.81,0,0,1-2.69,1,1.22,1.22,0,0,1-.54-1.5q1.68-4.63,3.38-9.25A1.27,1.27,0,0,1,28.62,20Zm-.9,6.61h1.66l-.78-2.36h-.12Z"/><path class="cls-1" d="M19.9,22.75v1.92c.76,0,1.51,0,2.25,0a1.4,1.4,0,0,1,0,2.79c-.55,0-1.11,0-1.67,0h-.59c0,.93,0,1.82,0,2.71a1.48,1.48,0,0,1-1.55,1.6,1.46,1.46,0,0,1-1.65-1.6q0-4.39,0-8.81A1.32,1.32,0,0,1,18.1,20h4.14a1.37,1.37,0,0,1,1.54,1.41,1.36,1.36,0,0,1-1.54,1.39C21.47,22.76,20.7,22.75,19.9,22.75Z"/></svg>