<!-- <svg id="Layer_1" data-name="Layer 1" xmlns="http://www.w3.org/2000/svg" viewBox="0 0 64 64"><defs><style>.cls-1{fill:#41e1f2;}</style></defs><title>Footer</title><path class="cls-1" d="M27.87,56.63c-1-.79-.5-1.91-.7-3h-2c-1,0-1.29-.35-1.3-1.29V48.84c-1.54-.45-1.54-.45-1.54-2a12.61,12.61,0,0,0,0-1.74c-.26-1.85.49-3.53.84-5.27a5.41,5.41,0,0,0-.85-4.46c-1.23-1.69-2.5-3.35-3.68-5.07a12,12,0,0,1-2.5-8.39A16,16,0,0,1,35,7.64c6.35,1.1,10.36,5,12.28,11.13,1.77,5.61.12,10.39-3.52,14.71a30.82,30.82,0,0,0-2.27,2.85,3.81,3.81,0,0,0-.61,2,8,8,0,0,0,.46,2.79,8.76,8.76,0,0,1,.55,3.57c0,.79,0,1.59,0,2.38,0,1.3-.19,1.51-1.52,1.69v3.3c0,1.25-.29,1.53-1.55,1.55H37.41c-.39,1,.33,2.28-.8,3Zm11.35-15c-.11-.59-.23-1.1-.32-1.62a6,6,0,0,1,1.35-5.55c.63-.68,1.17-1.44,1.75-2.16a17,17,0,0,0,3.52-6.15,12.84,12.84,0,0,0-.63-7.93A13,13,0,0,0,32.5,9.48c-6.1.06-10.71,2.74-13.23,8.4-1.55,3.46-1.78,7,.52,10.36,1.26,1.82,2.6,3.6,3.88,5.41a7.64,7.64,0,0,1,1.66,5.18c-.09.93-.24,1.87-.37,2.82h3.41c0-2,0-3.91,0-5.83a1.86,1.86,0,0,0-.3-.8c-1.8-3.24-3.62-6.46-5.42-9.69-.41-.75-.28-1.35.31-1.65s1.09-.06,1.48.63c1.63,2.87,3.21,5.78,4.9,8.62a7.35,7.35,0,0,1,1.15,4.42c-.09,1.41,0,2.84,0,4.3h2.12c0-1.93,0-3.83,0-5.73a3.85,3.85,0,0,1,.4-1.64c1.61-3,3.27-5.87,4.92-8.8.31-.54,1.21-2.18,2-1.31a1.67,1.67,0,0,1,.25.4,1.22,1.22,0,0,1-.11,1.32c-1.69,3-3.39,6-5.08,9.06a1.81,1.81,0,0,0-.33.79c0,1.95,0,3.91,0,5.91Zm.52,4.93V43.8H24.46v2.78ZM38.2,48.72H26V51.5H38.2Zm-8.86,5.8h5.81v-.87H29.34Z"/><path class="cls-1" d="M31.91,24.44l-1.76,1.8c-.69.7-1.25.73-1.87,0s-1.41-1.77-2.09-2.69a1,1,0,0,1,.08-1.49,1.07,1.07,0,0,1,1.55.23c.49.58.94,1.19,1.42,1.8l1.67-1.63c.84-.85,1.38-.82,2.15.11l1.27,1.52,1.08-1.22c.48-.54.77-1.13,1.58-1.14a1.39,1.39,0,0,1,.67.13.86.86,0,0,1,.43.66,1.25,1.25,0,0,1-.43.9l-.88,1c-.58.68-1.18,1.36-1.8,2-.45.49-1,.39-1.57-.2S32.44,25.09,31.91,24.44Z"/></svg> -->

<svg id="Layer_1" data-name="Layer 1" xmlns="http://www.w3.org/2000/svg" viewBox="0 0 64 64"><defs><style>.cls-1{fill:#58595B;}</style></defs><title>Footer</title><path class="cls-1" d="M27.87,56.63c-1-.79-.5-1.91-.7-3h-2c-1,0-1.29-.35-1.3-1.29V48.84c-1.54-.45-1.54-.45-1.54-2a12.61,12.61,0,0,0,0-1.74c-.26-1.85.49-3.53.84-5.27a5.41,5.41,0,0,0-.85-4.46c-1.23-1.69-2.5-3.35-3.68-5.07a12,12,0,0,1-2.5-8.39A16,16,0,0,1,35,7.64c6.35,1.1,10.36,5,12.28,11.13,1.77,5.61.12,10.39-3.52,14.71a30.82,30.82,0,0,0-2.27,2.85,3.81,3.81,0,0,0-.61,2,8,8,0,0,0,.46,2.79,8.76,8.76,0,0,1,.55,3.57c0,.79,0,1.59,0,2.38,0,1.3-.19,1.51-1.52,1.69v3.3c0,1.25-.29,1.53-1.55,1.55H37.41c-.39,1,.33,2.28-.8,3Zm11.35-15c-.11-.59-.23-1.1-.32-1.62a6,6,0,0,1,1.35-5.55c.63-.68,1.17-1.44,1.75-2.16a17,17,0,0,0,3.52-6.15,12.84,12.84,0,0,0-.63-7.93A13,13,0,0,0,32.5,9.48c-6.1.06-10.71,2.74-13.23,8.4-1.55,3.46-1.78,7,.52,10.36,1.26,1.82,2.6,3.6,3.88,5.41a7.64,7.64,0,0,1,1.66,5.18c-.09.93-.24,1.87-.37,2.82h3.41c0-2,0-3.91,0-5.83a1.86,1.86,0,0,0-.3-.8c-1.8-3.24-3.62-6.46-5.42-9.69-.41-.75-.28-1.35.31-1.65s1.09-.06,1.48.63c1.63,2.87,3.21,5.78,4.9,8.62a7.35,7.35,0,0,1,1.15,4.42c-.09,1.41,0,2.84,0,4.3h2.12c0-1.93,0-3.83,0-5.73a3.85,3.85,0,0,1,.4-1.64c1.61-3,3.27-5.87,4.92-8.8.31-.54,1.21-2.18,2-1.31a1.67,1.67,0,0,1,.25.4,1.22,1.22,0,0,1-.11,1.32c-1.69,3-3.39,6-5.08,9.06a1.81,1.81,0,0,0-.33.79c0,1.95,0,3.91,0,5.91Zm.52,4.93V43.8H24.46v2.78ZM38.2,48.72H26V51.5H38.2Zm-8.86,5.8h5.81v-.87H29.34Z"/><path class="cls-1" d="M31.91,24.44l-1.76,1.8c-.69.7-1.25.73-1.87,0s-1.41-1.77-2.09-2.69a1,1,0,0,1,.08-1.49,1.07,1.07,0,0,1,1.55.23c.49.58.94,1.19,1.42,1.8l1.67-1.63c.84-.85,1.38-.82,2.15.11l1.27,1.52,1.08-1.22c.48-.54.77-1.13,1.58-1.14a1.39,1.39,0,0,1,.67.13.86.86,0,0,1,.43.66,1.25,1.25,0,0,1-.43.9l-.88,1c-.58.68-1.18,1.36-1.8,2-.45.49-1,.39-1.57-.2S32.44,25.09,31.91,24.44Z"/></svg>
