<svg id="Layer_1" data-name="Layer 1" xmlns="http://www.w3.org/2000/svg" viewBox="0 0 64 64"><defs><style>.cls-1{fill:#41e1f2;}</style></defs><title>Footer</title><path class="cls-1" d="M30.46,50.28c0-1.78,0-3.46,0-5.14,0-.16-.2-.36-.35-.48-1.46-1.11-2.92-2.2-4.39-3.29a1,1,0,0,0-.57-.23c-1.73,0-3.45,0-5.27,0,0,.49,0,.94,0,1.38a1.54,1.54,0,0,1-1.63,1.67q-6,0-12,0a1.5,1.5,0,0,1-1.61-1.61q0-3,0-5.91a1.55,1.55,0,0,1,1.73-1.58h4.36v-7.3A6.09,6.09,0,0,1,17,21.41c2.18,0,4.36,0,6.55,0h.85c0-.51,0-.93,0-1.35a1.57,1.57,0,0,1,1.67-1.71c1.42,0,2.84,0,4.32,0V13.79H27.64a4.57,4.57,0,0,1-4.75-4.38,4.45,4.45,0,0,1,4.29-4.67c3.2-.14,6.41-.14,9.61,0a4.43,4.43,0,0,1,4.3,4.72,4.55,4.55,0,0,1-4.73,4.33H33.57v4.55h3.82c.26,0,.52,0,.78,0a1.53,1.53,0,0,1,1.4,1.53c0,2,0,4,0,6.05A1.48,1.48,0,0,1,38,27.46H33.53v1.36c0,1.66,0,3.32,0,5a1.15,1.15,0,0,0,.4.81c1.38,1.09,2.78,2.14,4.2,3.17a1.76,1.76,0,0,0,1,.32c2.56,0,5.12,0,7.68,0a.74.74,0,0,0,.82-.58,6,6,0,0,1,6.43-4,6.08,6.08,0,0,1,5.27,5.29,6,6,0,0,1-4,6.41.72.72,0,0,0-.56.83c0,1.37,0,2.75,0,4.13a6.07,6.07,0,0,1-6.11,6.09c-2.42,0-4.85,0-7.27,0a.72.72,0,0,0-.76.45,4.37,4.37,0,0,1-4.17,2.57H27.63a4.54,4.54,0,0,1-.43-9.07C28.25,50.2,29.32,50.28,30.46,50.28Zm0-22.82H26.09a1.53,1.53,0,0,1-1.67-1.68c0-.42,0-.84,0-1.28-.22,0-.36-.05-.49-.05-2.3,0-4.6,0-6.9,0a3.05,3.05,0,0,0-3.27,3.31c0,1.45,0,2.9,0,4.35v3h4.18c1.34,0,1.91.58,1.92,1.9v1.13c1.85,0,3.58,0,5.31,0a1.13,1.13,0,0,0,.62-.28c1.43-1.06,2.86-2.12,4.27-3.2a.94.94,0,0,0,.38-.61C30.47,31.85,30.46,29.7,30.46,27.46Zm3.07,22.79c1,0,1.87,0,2.77,0a4.67,4.67,0,0,1,4.38,2.64.92.92,0,0,0,.7.4c2.37,0,4.75,0,7.12,0A3,3,0,0,0,51.75,50c0-1.33,0-2.66,0-4a.62.62,0,0,0-.49-.72,5.86,5.86,0,0,1-3.69-3.69.66.66,0,0,0-.76-.53c-2.58,0-5.17,0-7.76,0a1.62,1.62,0,0,0-.83.28Q36,43,33.9,44.68a.92.92,0,0,0-.35.61C33.52,46.91,33.53,48.52,33.53,50.25ZM32,10.77h4.34a1.6,1.6,0,0,0,1.75-1.49,1.59,1.59,0,0,0-1.76-1.54H27.64a1.54,1.54,0,0,0-1.71,1.52,1.58,1.58,0,0,0,1.71,1.51Zm0,45.58h4.34a1.61,1.61,0,0,0,1.76-1.48,1.57,1.57,0,0,0-1.68-1.55q-4.41,0-8.83,0a1.5,1.5,0,0,0-1.63,1.58,1.58,1.58,0,0,0,1.7,1.45ZM50.23,39.64a3,3,0,1,0,3-3A3.06,3.06,0,0,0,50.23,39.64ZM36.52,21.47h-9v2.92h9ZM7.71,41.09h9V38.17h-9ZM32,42.29l3.53-2.66L32,37l-3.53,2.66Z"/><path class="cls-1" d="M53.22,16.19c-.92,0-1.85,0-2.77,0a1.56,1.56,0,0,1-1.73-1.49,1.58,1.58,0,0,1,1.68-1.56c1.92,0,3.84,0,5.76,0a1.53,1.53,0,1,1,0,3.05Z"/><path class="cls-1" d="M53.21,10.21c-1,0-1.9,0-2.84,0a1.53,1.53,0,1,1,0-3.05c1.94,0,3.89,0,5.83,0a1.53,1.53,0,1,1,0,3.05Z"/></svg>