<svg id="Layer_1" data-name="Layer 1" xmlns="http://www.w3.org/2000/svg" viewBox="0 0 64 64"><defs><style>.cls-1{fill:#41e1f2;}</style></defs><title>Footer</title><path class="cls-1" d="M13.08,38.61h4c3.14,0,6.28,0,9.41.15,2.22.12,4.42.54,6.62.88A3.89,3.89,0,0,1,35.51,41a3,3,0,0,1-1,4.71,19.1,19.1,0,0,1-2.93,1c-.31.1-.63.17-1.08.29L32,47.7l2.84,1.16a8.82,8.82,0,0,0,5.51.36c5-1.22,10.07-2.45,15.11-3.65a4.85,4.85,0,0,1,4.4,1A3,3,0,0,1,60,51.09a5.81,5.81,0,0,1-2.1,1.14L51.72,54.5c-3.83,1.4-7.64,2.86-11.51,4.16a22.45,22.45,0,0,1-10.26,1c-3.31-.46-6.6-1-9.9-1.57L13.51,57h-.13a10.84,10.84,0,0,1-.52,1.61,2.69,2.69,0,0,1-2.52,1.54c-1.46,0-2.92,0-4.38,0A2.9,2.9,0,0,1,3.15,57.3Q3.06,47.51,3,37.71a2.91,2.91,0,0,1,3-3q2.06,0,4.11,0a2.88,2.88,0,0,1,3,3ZM4.65,47.34h.1c0,1.2,0,2.41,0,3.61q0,3,0,6.07a1.33,1.33,0,0,0,1.39,1.5l4.11-.05a1.28,1.28,0,0,0,1.32-1.28c0-.34,0-.69,0-1,0-.77.4-1.11,1.17-1,2,.33,3.89.67,5.84,1,3.44.56,6.88,1.13,10.33,1.68a23,23,0,0,0,11.72-1.06q8.64-3.14,17.26-6.33a3.16,3.16,0,0,0,.95-.57,1.27,1.27,0,0,0,0-2.05,3.23,3.23,0,0,0-3-.64q-7.32,1.74-14.63,3.54a11,11,0,0,1-7-.33c-2.16-.87-4.31-1.77-6.47-2.66-.42-.17-.74-.41-.7-.91s.39-.68.82-.8c1.65-.44,3.31-.85,4.94-1.36a3.56,3.56,0,0,0,1.41-.86,1.19,1.19,0,0,0,0-1.69,2.63,2.63,0,0,0-1.6-.89,53.81,53.81,0,0,0-10.82-1l-9.28.07c-.86,0-1.1-.25-1.1-1.13,0-.5,0-1,0-1.51a1.28,1.28,0,0,0-1.32-1.33q-2.06,0-4.11,0a1.26,1.26,0,0,0-1.37,1.4Z"/><path class="cls-1" d="M42.08,33.7c-.45,1.23-.9,2.43-1.34,3.62l-.12.34a.84.84,0,0,1-1.54.06c-.82-1.55-1.63-3.1-2.45-4.64-1-1.91-2-3.82-3-5.72A1.65,1.65,0,0,0,33.3,27a2.16,2.16,0,0,0-.27.33q-2.69,5.1-5.39,10.2a1.47,1.47,0,0,1-.6.61c-.44.19-.84-.06-1-.57-.43-1.14-.86-2.28-1.26-3.43-.13-.39-.3-.48-.71-.36-1.14.32-2.3.59-3.45.88a.87.87,0,0,1-1-.26.89.89,0,0,1,0-1c1.7-3.22,3.39-6.44,5.11-9.65a.54.54,0,0,0-.09-.72A11.56,11.56,0,1,1,44.49,12.46,11.22,11.22,0,0,1,42,23a.47.47,0,0,0-.08.64q2.58,4.84,5.12,9.7a.87.87,0,0,1,0,1,.93.93,0,0,1-1.06.26l-3.58-.91ZM26.92,35.33l.15-.21c1.52-2.88,3.06-5.74,4.53-8.64.41-.81.87-1.33,1.84-1.13a1.37,1.37,0,0,0,.35,0,.89.89,0,0,1,.9.53C35.83,28,37,30.19,38.1,32.34l1.6,3c.35-.94.68-1.79,1-2.64s.57-.95,1.42-.73l2.67.66c-.07-.17-.11-.28-.16-.38l-4.5-8.52c-.3-.57-.25-.82.21-1.3a9.72,9.72,0,0,0,2.77-8.62A9.92,9.92,0,1,0,26.25,22.4c.53.53.57.75.22,1.42l-3.41,6.46-1.24,2.39,2.75-.7c.81-.2,1.11,0,1.38.75S26.59,34.44,26.92,35.33Z"/><path class="cls-1" d="M5.64,55.17a2.55,2.55,0,1,1,2.58,2.51A2.55,2.55,0,0,1,5.64,55.17ZM8.19,56a.93.93,0,0,0,.9-.92.91.91,0,0,0-.93-.88.9.9,0,0,0-.88.89A.92.92,0,0,0,8.19,56Z"/><path class="cls-1" d="M25.57,15.44a7.75,7.75,0,1,1,7.74,7.75A7.72,7.72,0,0,1,25.57,15.44Zm7.72,6.08a6.09,6.09,0,1,0-6.06-6.2A6.07,6.07,0,0,0,33.29,21.52Z"/><path class="cls-1" d="M32.63,17.78,36,13.53c.1-.11.18-.24.29-.34a.82.82,0,0,1,1.06-.06.79.79,0,0,1,.24,1,4.51,4.51,0,0,1-.44.61l-3.07,3.83a1.72,1.72,0,0,1-2.95.08L29.4,16.69a.84.84,0,0,1,0-1.23.83.83,0,0,1,1.23.1Z"/></svg>