<svg width="520" height="520" viewBox="0 0 520 520" fill="none" xmlns="http://www.w3.org/2000/svg">
<path d="M261.74 52.25C270.43 54.33 278.76 57.09 285.97 62.75C303.06 76.17 309.28 99.73 300.88 120.12C292.71 139.96 271.58 152.66 250.92 150.14C227.84 147.32 210.43 130.84 207.22 108.76C203.29 81.75 220.9 57.51 247.73 52.95C248.36 52.84 248.95 52.48 249.56 52.24C253.62 52.25 257.68 52.25 261.74 52.25Z" fill="#58595B"/>
<path d="M300.27 181.36C300.27 257.44 300.27 333.17 300.27 409.33C310.93 409.33 321.27 409.33 331.96 409.33C331.96 429 331.96 448.24 331.96 467.75C284.15 467.75 236.33 467.75 188.23 467.75C188.23 448.59 188.23 429.44 188.23 409.81C198.58 409.81 209.05 409.81 219.84 409.81C219.84 352.89 219.84 296.44 219.84 240.68C214.12 239.01 208.39 238.15 203.43 235.72C191.79 230.03 185.94 216.61 188.76 203.93C191.52 191.52 202.48 181.63 215.25 181.47C243.36 181.12 271.49 181.36 300.27 181.36Z" fill="#58595B"/>
</svg>
