<svg width="520" height="520" viewBox="0 0 520 520" fill="none" xmlns="http://www.w3.org/2000/svg">
<path d="M52.89 148.12C190.85 148.12 328.82 148.12 467.08 148.12C467.16 149.7 467.27 151 467.27 152.3C467.28 211.36 467.31 270.42 467.26 329.48C467.25 349.41 453.42 365 434.09 366.7C434.09 365.22 434.09 363.76 434.09 362.31C434.09 339.47 433.7 316.62 434.22 293.79C434.59 277.43 432.86 261.56 428.37 245.81C424.2 231.16 420.85 216.27 417.14 201.48C412.71 183.84 398.71 172.44 381.46 172.44C364.22 172.44 350.22 183.84 345.81 201.5C340.64 222.18 335.43 242.85 330.41 263.57C329.47 267.46 328.95 271.56 328.93 275.57C328.81 304.49 328.86 333.41 328.86 362.34C328.86 363.79 328.86 365.25 328.86 367.07C326.89 367.07 325.31 367.07 323.73 367.07C246.57 367.07 169.42 367.07 92.26 367.07C71.53 367.07 58.55 356.98 53.47 336.92C53.34 336.41 53.07 335.94 52.87 335.45C52.89 273 52.89 210.56 52.89 148.12ZM203.41 245.43C196.94 245.43 190.47 245.43 184 245.43C158.26 245.43 132.51 245.4 106.77 245.45C100.08 245.46 94.94 250.04 94.24 256.29C93.56 262.34 97.67 268.08 103.82 269.43C105.5 269.8 107.3 269.74 109.04 269.74C168.75 269.75 228.46 269.75 288.17 269.75C292.35 269.75 296.53 269.86 300.7 269.71C305.88 269.52 309.69 266.96 311.72 262.18C315.22 253.93 309.13 245.45 299.65 245.44C267.57 245.41 235.49 245.43 203.41 245.43ZM202.96 221.1C206.87 221.1 210.78 221.1 214.69 221.1C243.13 221.1 271.57 221.13 300.01 221.08C306.77 221.07 311.84 216.61 312.62 210.31C313.37 204.3 309.28 198.5 303.13 197.11C301.45 196.73 299.65 196.78 297.91 196.78C246.56 196.76 195.2 196.77 143.85 196.77C131.58 196.77 119.32 196.78 107.05 196.77C101.69 196.77 97.64 199.03 95.34 203.89C91.42 212.16 97.5 221.06 107.13 221.07C139.07 221.14 171.02 221.1 202.96 221.1ZM203.01 318.42C209.21 318.42 215.41 318.42 221.61 318.42C247.76 318.42 273.91 318.45 300.06 318.4C306.8 318.39 311.87 313.89 312.63 307.59C313.35 301.58 309.23 295.79 303.09 294.42C301.41 294.05 299.61 294.11 297.87 294.11C234.92 294.1 171.98 294.1 109.03 294.1C107.82 294.1 106.6 294.04 105.39 294.15C99.52 294.66 94.78 299.35 94.22 305.13C93.67 310.79 97.18 316.1 102.83 317.75C104.72 318.3 106.8 318.4 108.8 318.4C140.2 318.43 171.6 318.42 203.01 318.42Z" fill="#58595B"/>
<path d="M435.72 50.81C440.91 52.92 446.53 54.36 451.21 57.29C460.52 63.11 466.2 72.07 466.84 82.98C467.63 96.4 467.03 109.91 467.03 123.8C328.91 123.8 190.9 123.8 52.89 123.8C52.89 110.01 52.89 96.23 52.89 82.44C53.21 81.28 53.54 80.13 53.84 78.97C56.47 68.8 62.11 60.77 71.33 55.75C75.4 53.53 80.06 52.42 84.46 50.81C201.54 50.81 318.63 50.81 435.72 50.81ZM114.2 75.15C107.64 75.26 102.22 80.83 102.28 87.4C102.34 93.97 107.85 99.45 114.4 99.45C121.11 99.45 126.7 93.71 126.53 87C126.36 80.42 120.76 75.04 114.2 75.15ZM175.09 87.25C175.07 80.68 169.58 75.18 163.02 75.15C156.47 75.12 150.92 80.58 150.84 87.14C150.75 93.86 156.41 99.53 163.11 99.45C169.66 99.37 175.11 93.82 175.09 87.25ZM223.65 87.15C223.57 80.58 218.04 75.12 211.48 75.15C204.92 75.18 199.43 80.68 199.4 87.25C199.37 93.97 205.07 99.6 211.77 99.46C218.33 99.31 223.73 93.72 223.65 87.15Z" fill="#58595B"/>
<path d="M376.63 466.01C372.55 464.07 368.11 462.63 364.47 460.07C357.09 454.88 353.47 447.3 353.21 438.28C353.02 431.44 353.17 424.6 353.17 417.56C372.17 417.56 390.79 417.56 409.55 417.56C409.55 425.68 410.35 433.69 409.37 441.49C407.82 453.73 400.35 461.58 388.5 465.14C387.76 465.36 387.06 465.72 386.34 466.02C383.11 466.01 379.87 466.01 376.63 466.01Z" fill="#58595B"/>
<path d="M353.44 286.17C372.3 286.17 390.85 286.17 409.61 286.17C409.61 321.7 409.61 357.04 409.61 392.71C391.02 392.71 372.37 392.71 353.44 392.71C353.44 357.35 353.44 321.91 353.44 286.17Z" fill="#58595B"/>
<path d="M406.88 261.5C389.75 261.5 373.06 261.5 355.91 261.5C358.02 252.92 360.06 244.57 362.13 236.24C364.51 226.69 366.91 217.14 369.32 207.59C371.09 200.59 375.46 196.75 381.57 196.8C387.54 196.85 391.91 200.65 393.6 207.37C397.87 224.38 402.12 241.39 406.36 258.4C406.6 259.31 406.68 260.26 406.88 261.5Z" fill="#58595B"/>
</svg>
