<svg width="520" height="520" viewBox="0 0 520 520" fill="none" xmlns="http://www.w3.org/2000/svg">
<path d="M410.2 467.32C402.65 466.04 395.08 464.81 387.54 463.47C350.44 456.89 315.18 444.73 282.03 426.98C197.79 381.88 133.46 316.9 89.86 231.79C69.99 193 57.8 151.74 52.83 108.4C51.96 100.84 54.82 95.52 61.65 92.29C88.49 79.62 115.33 66.97 142.2 54.36C149.62 50.88 156.83 52.85 161.28 59.74C178.08 85.7 194.82 111.69 211.51 137.72C215.95 144.65 215.14 151.26 209.26 157.18C199.65 166.87 190.17 176.7 180.25 186.06C174.58 191.41 173.17 197.35 174.55 204.72C179.91 233.43 192.85 258.49 211.31 280.8C231.52 305.22 255.68 324.71 285.33 336.42C296.03 340.64 307.52 342.92 318.73 345.75C324.15 347.11 328.72 344.89 332.61 340.96C342.39 331.06 352.27 321.25 362.12 311.42C368.95 304.6 375.07 303.88 383.14 309.06C408.59 325.4 434.02 341.75 459.44 358.14C467.2 363.15 469.22 370.09 465.32 378.39C452.88 404.89 440.35 431.35 427.98 457.88C425.77 462.63 422.15 465.45 417.5 467.32C415.06 467.32 412.63 467.32 410.2 467.32Z" fill="#58595B"/>
</svg>
