<svg width="520" height="520" viewBox="0 0 520 520" fill="none" xmlns="http://www.w3.org/2000/svg">
<path d="M295.5 158.79C295.33 159.35 295.07 160.53 294.6 161.63C282.53 189.85 270.42 218.06 258.36 246.28C257.35 248.65 255.74 250.2 253.39 251.21C225.16 263.27 196.94 275.37 168.72 287.47C165.95 288.66 163.3 288.77 160.95 286.58C158.88 284.65 158.59 281.99 160.05 278.6C172.13 250.39 184.18 222.16 196.41 194.01C197.24 192.1 199.18 190.14 201.08 189.31C229.31 177.03 257.63 164.92 285.93 152.8C291.01 150.61 295.56 153.21 295.5 158.79ZM214.98 220C214.94 226.93 220.32 232.42 227.21 232.46C234.14 232.5 239.63 227.11 239.67 220.23C239.71 213.3 234.33 207.82 227.44 207.77C220.51 207.72 215.02 213.1 214.98 220Z" fill="#58595B"/>
<path d="M452.55 428.77C422.08 397.07 391.58 365.39 361.1 333.7C359.24 331.76 357.4 329.81 355.39 327.69C374.62 304.57 386.94 278.37 392.09 248.96C397.21 219.67 394.86 190.88 384.56 162.96C374.22 134.95 357.59 111.14 334.65 91.99C272.76 40.32 183.78 39 120.65 91.52C54.3001 146.72 40.4301 240.88 88.0401 312.61C110.06 345.78 140.38 368.73 178.59 380.1C230.15 395.45 278.45 387.09 323.4 357.36C324.5 358.55 325.49 359.64 326.51 360.7C356.71 392.1 386.95 423.47 417.09 454.93C422.06 460.12 427.01 465.15 434.11 467.32C436.81 467.32 439.51 467.32 442.21 467.32C446.13 465.09 450.73 463.54 453.86 460.49C462.84 451.74 462.06 438.65 452.55 428.77ZM227.49 343.8C159.65 344.22 103.55 288.13 103.72 220.04C103.89 151.89 159.36 96.48 227.37 96.52C295.44 96.57 350.83 151.97 350.92 220.11C351 288.18 295.93 343.37 227.49 343.8Z" fill="#58595B"/>
</svg>
