<svg width="520" height="520" viewBox="0 0 520 520" fill="none" xmlns="http://www.w3.org/2000/svg">
<path d="M248.53 57.28C240.85 55.39 232.87 54.67 225.03 53.38C223.99 53.21 222.97 52.92 221.94 52.68H200.07C191.87 54.04 183.59 55.05 175.47 56.81C114.58 70.03 65.03 122.35 55.1 183.74C54.22 189.17 53.48 194.63 52.68 200.07V221.94C53.98 229.88 55.03 237.88 56.64 245.76C59.68 260.66 65.19 274.69 72.68 287.9C74.13 290.44 74.42 292.65 73.63 295.46C66.84 319.58 60.18 343.73 53.29 368.59C55.22 368.12 56.7 367.81 58.16 367.4C81.01 361.08 103.87 354.77 126.7 348.38C129.3 347.65 131.44 347.77 133.9 349.17C212.97 393.91 315.05 361.35 353.92 279.06C396.87 188.15 346.12 81.25 248.53 57.28ZM202.23 322.89H201.92C191.28 322.89 183.77 314.44 183.77 303.49C183.77 291.92 191.59 283.78 202.54 283.78C213.5 283.78 221 291.92 221 303.49C221 314.44 213.81 322.89 202.23 322.89ZM232.58 205.25C218.81 221.52 213.81 235.6 214.75 251.55C214.92 255.82 211.5 259.38 207.22 259.38H197.63C193.7 259.38 190.42 256.35 190.12 252.43L190.03 251.24C188.15 234.66 193.78 215.89 209.43 197.43C223.51 180.53 231.33 168.33 231.33 154.25C231.33 138.29 221.32 127.65 201.61 127.34C194.27 127.34 186.41 128.93 179.65 131.68C174.12 133.93 167.82 131.32 165.7 125.74C163.74 120.58 166.07 114.76 171.09 112.46C181.36 107.73 194.58 104.81 207.24 104.81C243.22 104.81 259.49 127.03 259.49 150.81C259.49 172.08 247.6 187.73 232.58 205.25Z" fill="#58595B"/>
<path d="M323.17 467.32C314.59 465.68 305.83 464.7 297.47 462.3C261.25 451.93 233.98 430.04 215.49 397.21C215.03 396.39 214.63 395.53 214.24 394.67C214.15 394.46 214.23 394.17 214.23 393.91C309.07 393.75 393.31 311.68 393.92 213.84C403.67 218.61 412.45 224.52 420.44 231.55C447.21 255.09 462.77 284.51 466.6 320.04C466.71 321.09 467.07 322.12 467.31 323.15C467.31 329.9 467.31 336.65 467.31 343.4C467.08 344.3 466.73 345.2 466.64 346.11C464.91 365.03 459.17 382.67 450.04 399.3C449.21 400.8 449.21 403.17 449.68 404.91C454.81 423.87 460.11 442.79 465.35 461.72C465.76 463.2 466.1 464.69 466.57 466.53C465.46 466.3 464.94 466.22 464.44 466.09C445.12 460.75 425.77 455.49 406.5 449.98C403 448.98 400.36 449.56 397.07 450.98C386.6 455.48 376 459.8 365.15 463.24C358.18 465.45 350.68 466.01 343.41 467.31C336.66 467.32 329.92 467.32 323.17 467.32Z" fill="#58595B"/>
</svg>
