<svg width="520" height="520" viewBox="0 0 520 520" fill="none" xmlns="http://www.w3.org/2000/svg">
<path d="M270.41 53.79C277.63 55.1 284.92 56.11 292.05 57.78C342.68 69.63 383.2 113.36 391.3 164.68C397 200.8 389.85 234.1 368.71 264.01C352.28 287.25 343.8 312.76 344.54 341.27C344.56 342.21 344.52 343.15 344.48 344.09C344.47 344.34 344.34 344.58 344.18 345.09C328.38 345.09 312.5 345.09 296.38 345.09C294.72 300.26 303.17 258.04 324.1 218.54C326.96 213.14 325.13 206.45 319.9 203.3C319.61 203.13 319.33 202.96 319.04 202.78C319.01 202.76 318.97 202.74 318.94 202.72C313.27 199.32 305.89 201.41 302.85 207.29C300.72 211.4 298.65 215.47 296.66 219.59C294.95 223.14 293.04 223.63 286.66 222.51C268.66 219.34 250.24 219.21 232.29 222.61C226.39 223.73 224.77 222.78 223.19 219.52C221.22 215.46 219.18 211.44 217.08 207.36C214.05 201.48 206.69 199.36 201 202.74L200.06 203.3C194.79 206.43 192.94 213.15 195.82 218.57C216.66 257.88 225.15 300.1 223.51 345.04H175.64C175.34 338.55 175.25 332.01 174.71 325.52C172.92 304.03 165.53 284.5 153.07 267.01C139.26 247.62 130.01 226.47 127.64 202.69C123.03 156.38 137.79 117.29 172.65 86.32C193.73 67.6 218.7 57.24 246.8 54.49C247.71 54.4 248.58 54.04 249.48 53.8H270.41V53.79Z" fill="#58595B"/>
<path d="M201.2 418.05C240.32 418.05 279.42 418.05 318.52 418.05C318.33 440.66 289.49 465.34 262.44 466.18C227.06 467.27 204.19 439.94 201.2 418.05Z" fill="#58595B"/>
<path d="M332.39 393.53H187.42C180.88 393.53 175.58 388.23 175.58 381.69C175.58 375.15 180.88 369.85 187.42 369.85H332.39C338.93 369.85 344.23 375.15 344.23 381.69C344.24 388.23 338.93 393.53 332.39 393.53Z" fill="#58595B"/>
<path d="M272.15 345.25C263.78 345.25 256.15 345.25 247.78 345.25C248.69 311.94 244.92 279.24 234.27 247.28C251.54 247.28 268.29 247.28 285.6 247.28C275.06 279.13 271.15 311.7 272.15 345.25Z" fill="#58595B"/>
</svg>
