<svg width="520" height="520" viewBox="0 0 520 520" fill="none" xmlns="http://www.w3.org/2000/svg">
<path d="M467.8 376.87C467.17 379.62 466.61 382.39 465.9 385.13C458.66 413.24 432.55 432.36 403.71 430.7C374.35 429.02 350.8 407.42 346.69 378.42C342 345.31 364.85 314.74 398.09 309.67C430.93 304.65 461.92 327.65 467.05 360.83C467.17 361.6 467.54 362.33 467.79 363.07C467.8 367.67 467.8 372.27 467.8 376.87Z" fill="#58595B"/>
<path d="M113.09 430.8C79.41 430.8 52.17 403.59 52.21 369.99C52.25 336.38 79.56 309.03 113.06 309.05C146.61 309.07 173.98 336.44 173.96 369.95C173.93 403.6 146.72 430.8 113.09 430.8Z" fill="#58595B"/>
<path d="M260.06 174.3C226.48 174.34 199.15 147.08 199.13 113.53C199.11 79.94 226.35 52.67 259.94 52.65C293.57 52.63 320.85 79.83 320.88 113.41C320.9 146.99 293.66 174.25 260.06 174.3Z" fill="#58595B"/>
<path d="M339.21 435.03C335.67 428.04 327.53 424.96 320.27 427.87C279.66 444.09 240.24 444.1 199.76 427.88C192.49 424.97 184.33 428.05 180.79 435.05L180.65 435.33C178.78 439.03 178.52 443.39 179.95 447.28C181.4 451.23 184.32 454.3 188.19 455.94C210.77 465.5 234.93 470.35 259.99 470.35C264.58 470.35 269.27 470.18 273.93 469.86C294.08 468.45 313.58 463.77 331.88 455.97C335.74 454.32 338.65 451.25 340.09 447.3C341.51 443.41 341.25 439.06 339.38 435.36L339.21 435.03Z" fill="#58595B"/>
<path d="M444.05 261.09C436.74 209.91 413.35 169.38 372.56 137.18C369.27 134.58 365 133.48 360.84 134.15C356.69 134.82 352.99 137.23 350.69 140.74L350.53 140.99C346.29 147.46 347.73 156.26 353.81 161.02C387.77 187.64 408.04 222.74 414.08 265.36C415.14 272.83 421.38 278.25 428.92 278.25C429.2 278.25 429.48 278.24 429.76 278.23L429.99 278.22C434.19 277.99 438.12 276 440.79 272.75C443.46 269.5 444.65 265.25 444.05 261.09Z" fill="#58595B"/>
<path d="M169.32 140.73C167.02 137.22 163.32 134.82 159.17 134.15C155.03 133.47 150.76 134.58 147.46 137.17C107.2 168.87 83.1401 210.55 75.9301 261.05C75.3401 265.21 76.5201 269.45 79.1901 272.7C81.8501 275.95 85.7901 277.95 89.9901 278.18L90.2201 278.19C90.5101 278.21 90.7901 278.21 91.0801 278.21C98.6101 278.21 104.85 272.79 105.91 265.32C111.97 222.67 132.25 187.58 166.19 161C172.28 156.23 173.72 147.42 169.47 140.95L169.32 140.73Z" fill="#58595B"/>
</svg>
