<svg width="520" height="520" viewBox="0 0 520 520" fill="none" xmlns="http://www.w3.org/2000/svg">
<path d="M468.13 207.06C466.54 213.15 465.42 219.41 463.3 225.31C453.69 252.05 427.84 271.07 399.45 272.33C390.31 272.74 381.13 272.54 371.98 272.49C369.72 272.48 368.46 272.92 367.56 275.36C359.37 297.42 342.69 308.89 319.09 308.9C280.43 308.91 241.77 308.92 203.11 308.9C179.8 308.89 162.99 297.2 154.8 275.55C154.34 274.34 152.84 272.67 151.83 272.67C140.94 272.7 129.94 272.16 119.17 273.45C96.18 276.21 78.55 297.44 78.57 321.08C78.59 344.72 96.21 365.85 119.27 368.61C130.04 369.9 141.04 369.35 151.93 369.38C152.92 369.38 154.4 367.63 154.83 366.41C159.79 352.42 168.87 342.14 182.74 336.92C188.78 334.65 195.55 333.37 202 333.32C241.47 333 280.94 333.1 320.41 333.18C342.76 333.23 359.79 345.32 367.5 366.41C368.19 368.3 368.74 369.63 371.28 369.6C384.48 369.46 397.67 369.53 411.34 368.82C405.35 364.3 399.36 359.77 393 354.96C397.85 348.5 402.56 342.21 407.53 335.59C427.74 350.95 447.71 366.13 468.13 381.65C447.77 397.13 427.87 412.26 407.55 427.71C402.74 421.32 398.01 415.02 392.99 408.35C399.18 403.69 405.23 399.13 411.28 394.57C411.15 394.17 411.15 394.18 411.02 393.78C404.64 393.78 398.26 393.78 391.88 393.78C385.28 393.78 378.68 393.9 372.08 393.72C369.53 393.65 368.33 394.4 367.46 396.9C361.48 413.96 349.62 424.73 332 428.86C328.11 429.77 324 430.09 319.99 430.09C280.79 430.18 241.59 430.18 202.39 430.13C179.76 430.1 162.72 418.15 154.98 396.82C154.06 394.28 152.79 393.74 150.31 393.71C139.14 393.58 127.82 394.33 116.84 392.75C89.31 388.77 69.69 373.33 59.56 347.51C49.1 320.85 53.62 295.75 72.01 273.8C86.4 256.61 105.45 248.53 127.82 248.3C135.5 248.22 143.18 248.2 150.85 248.34C152.61 248.37 154.19 247.3 154.8 245.65C163.02 223.46 179.69 211.93 203.34 211.92C242.14 211.91 280.93 211.89 319.73 211.93C342.68 211.95 359.54 223.78 367.65 245.25C368.11 246.46 369.6 248.15 370.6 248.15C381.49 248.12 392.49 248.66 403.26 247.37C426.27 244.61 443.89 223.4 443.88 199.76C443.87 176.12 426.25 154.97 403.2 152.2C392.43 150.91 381.43 151.45 370.54 151.43C369.55 151.43 368.06 153.16 367.62 154.38C362.66 168.36 353.59 178.66 339.72 183.88C333.68 186.15 326.92 187.44 320.47 187.5C281 187.82 241.53 187.72 202.06 187.64C179.71 187.6 162.61 175.5 154.99 154.42C154.09 151.93 152.87 151.36 150.35 151.18C145.93 150.87 141.56 152.29 138.06 155.01C125.02 165.15 111.7 174.92 97.97 185.22C93.19 178.88 88.46 172.6 83.4 165.88C89.55 161.24 95.61 156.68 102.44 151.53H66.84C60.1 151.53 54.63 146.06 54.63 139.32C54.63 132.58 60.1 127.11 66.84 127.11H101.42C101.56 126.69 101.56 126.7 101.7 126.29C95.75 121.79 89.8 117.3 83.43 112.48C88.24 106.06 92.96 99.78 97.88 93.21C99.46 94.33 100.86 95.29 102.22 96.3C115.04 105.91 127.93 115.43 140.63 125.2C144.61 128.26 148.87 126.67 153.03 126.83C153.6 126.85 154.45 125.1 154.83 124.05C160.96 107.06 172.65 96.15 190.29 92.03C194.44 91.06 198.82 90.75 203.1 90.74C241.76 90.64 280.42 90.67 319.08 90.69C342.69 90.7 359.38 102.17 367.56 124.23C368.46 126.66 369.72 127.07 371.98 127.1C383.01 127.25 394.14 126.73 405.06 127.97C436.72 131.56 462.48 157.09 467.25 188.64C467.45 189.95 467.84 191.23 468.14 192.53V207.06H468.13Z" fill="#58595B"/>
</svg>
