<svg width="520" height="520" viewBox="0 0 520 520" fill="none" xmlns="http://www.w3.org/2000/svg">
<path d="M52.68 306.58C54.28 301.58 57.83 298.61 62.52 296.58C66.47 294.87 70.25 292.75 74.13 290.87C88.32 284 101.74 288.43 108.85 302.49C116.52 317.65 124.04 332.88 131.62 348.09C144.02 372.95 156.42 397.8 168.8 422.66C176.56 438.25 172.21 451.32 156.72 459.03C152.86 460.95 148.99 462.87 145.12 464.76C136.28 469.08 130.28 467.07 125.86 458.24C103.06 412.65 80.28 367.06 57.49 321.47C55.94 318.37 54.28 315.33 52.67 312.26C52.68 310.36 52.68 308.47 52.68 306.58Z" fill="#58595B"/>
<path d="M125.04 279.79C139.68 266.32 154.61 253.31 174.34 247.76C204.9 239.17 232.6 244.61 256.63 265.68C262.19 270.55 267.82 272.82 275.22 272.68C294.25 272.31 313.29 272.42 332.32 272.6C350.09 272.77 361.54 288.93 355.73 305.27C352.32 314.86 343.25 321.08 332.14 321.14C316.48 321.24 300.82 321.09 285.16 321.2C275.94 321.26 270.19 329.03 273.02 337.32C274.65 342.08 278.73 345.36 284.03 345.39C303.2 345.51 322.38 345.7 341.54 345.29C349.33 345.12 356.01 341.49 361.09 335.24C382.18 309.25 403.3 283.28 424.46 257.34C431.19 249.09 441.7 246.22 451.43 249.74C461.15 253.25 468.01 262.4 467.25 272.75C466.88 277.75 465.14 283.25 462.31 287.36C439.02 321.29 415.66 355.17 391.64 388.59C377.52 408.24 357.42 418.1 333.27 418.28C287.78 418.63 242.28 418.41 196.78 418.29C195.43 418.29 193.42 417.18 192.84 416.02C170.29 371.08 147.88 326.07 125.46 281.07C125.29 280.73 125.22 280.34 125.04 279.79Z" fill="#58595B"/>
<path d="M265.96 65.54C267.28 66.14 268.34 66.49 269.26 67.07C270.41 67.8 271.46 68.7 272.54 69.55C280.69 75.99 280.73 76.07 289.98 71.68C291.24 71.08 292.43 69.33 292.73 67.92C293.48 64.4 293.72 60.77 294.13 57.18C294.49 54.05 296.26 52.53 299.37 52.53C310.59 52.52 321.82 52.52 333.04 52.53C336.17 52.53 337.87 54.15 338.22 57.25C338.6 60.59 339.19 63.92 339.38 67.27C339.52 69.88 340.89 70.92 343.02 72.19C349.21 75.89 354.03 75.12 359.41 70.12C365.99 64 366.39 64.44 372.69 70.73C379.39 77.43 386.11 84.12 392.79 90.84C395.97 94.04 396.04 95.61 393.29 99.22C391.17 102 388.86 104.64 386.95 107.54C386.29 108.55 386.05 110.34 386.46 111.48C390.07 121.54 390.12 121.52 400.94 122.56C407.96 123.23 408.7 124.04 408.7 131.1C408.7 140.95 408.73 150.8 408.69 160.65C408.67 165.36 407.6 166.54 402.92 167.23C400.95 167.52 398.95 167.64 396.99 167.99C394.72 168.39 391.42 168.21 390.43 169.6C388.26 172.67 387.16 176.53 385.87 180.16C385.65 180.79 386.5 181.94 387.06 182.69C389.22 185.59 391.43 188.45 393.7 191.27C395.89 194 395.62 196.41 393.17 198.85C385.46 206.49 377.78 214.15 370.16 221.87C367.62 224.44 365.16 224.78 362.3 222.42C359.52 220.12 356.71 217.81 353.71 215.81C352.71 215.14 350.91 214.89 349.78 215.3C339.64 218.95 339.66 219 338.63 229.71C337.95 236.79 337.19 237.5 330.14 237.5C320.29 237.5 310.44 237.52 300.59 237.49C295.77 237.48 294.66 236.5 293.97 231.81C293.62 229.47 293.45 227.1 293.06 224.77C292.74 222.85 292.84 219.97 291.68 219.27C288.33 217.23 284.46 216 280.72 214.65C280.2 214.46 279.21 215.34 278.54 215.86C275.56 218.12 272.61 220.42 269.66 222.72C267.2 224.64 264.89 224.52 262.67 222.3C254.74 214.36 246.81 206.42 238.87 198.49C236.64 196.26 236.58 193.96 238.51 191.51C240.83 188.57 243.23 185.7 245.32 182.6C246 181.59 246.33 179.8 245.94 178.68C242.38 168.48 242.32 168.5 231.56 167.47C224.33 166.78 223.65 166.03 223.65 158.7C223.65 148.97 223.63 139.25 223.66 129.52C223.68 124.56 224.69 123.45 229.64 122.76C231.86 122.45 234.11 121.87 236.31 122C240.85 122.27 242.53 119.76 244.33 116.02C246.7 111.09 246.07 107.65 242.55 103.51C234.88 94.48 235.03 95.3 243.57 86.83C249.77 80.68 255.89 74.46 262.12 68.34C263.22 67.25 264.65 66.48 265.96 65.54ZM352.1 145.36C352.23 125.47 336.28 109.22 316.52 109.08C296.66 108.94 280.35 124.93 280.23 144.66C280.1 164.52 296.06 180.79 315.82 180.94C335.66 181.1 351.97 165.11 352.1 145.36Z" fill="#58595B"/>
</svg>
