<?xml version="1.0" encoding="utf-8"?>
<!-- Generator: Adobe Illustrator 24.0.1, SVG Export Plug-In . SVG Version: 6.00 Build 0)  -->
<svg version="1.1" xmlns="http://www.w3.org/2000/svg" xmlns:xlink="http://www.w3.org/1999/xlink" x="0px" y="0px"
	 viewBox="0 0 520 520" style="enable-background:new 0 0 520 520;" xml:space="preserve">
<style type="text/css">
	.st0{display:none;}
	.st1{display:inline;fill:none;stroke:#808080;stroke-width:0.7946;stroke-miterlimit:10;}
</style>
<g id="Layer_2" class="st0">
	<rect x="52.68" y="52.68" class="st1" width="414.64" height="414.64"/>
</g>
<g id="Layer_1">
	<g>
		<path d="M261.74,52.25c8.69,2.08,17.02,4.84,24.23,10.5c17.09,13.42,23.31,36.98,14.91,57.37c-8.17,19.84-29.3,32.54-49.96,30.02
			c-23.08-2.82-40.49-19.3-43.7-41.38c-3.93-27.01,13.68-51.25,40.51-55.81c0.63-0.11,1.22-0.47,1.83-0.71
			C253.62,52.25,257.68,52.25,261.74,52.25z"/>
		<path d="M300.27,181.36c0,76.08,0,151.81,0,227.97c10.66,0,21,0,31.69,0c0,19.67,0,38.91,0,58.42c-47.81,0-95.63,0-143.73,0
			c0-19.16,0-38.31,0-57.94c10.35,0,20.82,0,31.61,0c0-56.92,0-113.37,0-169.13c-5.72-1.67-11.45-2.53-16.41-4.96
			c-11.64-5.69-17.49-19.11-14.67-31.79c2.76-12.41,13.72-22.3,26.49-22.46C243.36,181.12,271.49,181.36,300.27,181.36z"/>
	</g>
</g>
</svg>
