<?xml version="1.0" encoding="utf-8"?>
<!-- Generator: Adobe Illustrator 24.0.1, SVG Export Plug-In . SVG Version: 6.00 Build 0)  -->
<svg version="1.1" xmlns="http://www.w3.org/2000/svg" xmlns:xlink="http://www.w3.org/1999/xlink" x="0px" y="0px"
	 viewBox="0 0 520 520" style="enable-background:new 0 0 520 520;" xml:space="preserve">
<style type="text/css">
	.st0{display:none;}
	.st1{display:inline;fill:none;stroke:#808080;stroke-width:0.7946;stroke-miterlimit:10;}
</style>
<g id="Layer_2" class="st0">
	<rect x="52.68" y="52.68" class="st1" width="414.64" height="414.64"/>
</g>
<g id="Layer_1">
	<g>
		<path d="M52.89,148.12c137.96,0,275.93,0,414.19,0c0.08,1.58,0.19,2.88,0.19,4.18c0.01,59.06,0.04,118.12-0.01,177.18
			c-0.01,19.93-13.84,35.52-33.17,37.22c0-1.48,0-2.94,0-4.39c0-22.84-0.39-45.69,0.13-68.52c0.37-16.36-1.36-32.23-5.85-47.98
			c-4.17-14.65-7.52-29.54-11.23-44.33c-4.43-17.64-18.43-29.04-35.68-29.04c-17.24,0-31.24,11.4-35.65,29.06
			c-5.17,20.68-10.38,41.35-15.4,62.07c-0.94,3.89-1.46,7.99-1.48,12c-0.12,28.92-0.07,57.84-0.07,86.77c0,1.45,0,2.91,0,4.73
			c-1.97,0-3.55,0-5.13,0c-77.16,0-154.31,0-231.47,0c-20.73,0-33.71-10.09-38.79-30.15c-0.13-0.51-0.4-0.98-0.6-1.47
			C52.89,273,52.89,210.56,52.89,148.12z M203.41,245.43c-6.47,0-12.94,0-19.41,0c-25.74,0-51.49-0.03-77.23,0.02
			c-6.69,0.01-11.83,4.59-12.53,10.84c-0.68,6.05,3.43,11.79,9.58,13.14c1.68,0.37,3.48,0.31,5.22,0.31
			c59.71,0.01,119.42,0.01,179.13,0.01c4.18,0,8.36,0.11,12.53-0.04c5.18-0.19,8.99-2.75,11.02-7.53
			c3.5-8.25-2.59-16.73-12.07-16.74C267.57,245.41,235.49,245.43,203.41,245.43z M202.96,221.1c3.91,0,7.82,0,11.73,0
			c28.44,0,56.88,0.03,85.32-0.02c6.76-0.01,11.83-4.47,12.61-10.77c0.75-6.01-3.34-11.81-9.49-13.2c-1.68-0.38-3.48-0.33-5.22-0.33
			c-51.35-0.02-102.71-0.01-154.06-0.01c-12.27,0-24.53,0.01-36.8,0c-5.36,0-9.41,2.26-11.71,7.12
			c-3.92,8.27,2.16,17.17,11.79,17.18C139.07,221.14,171.02,221.1,202.96,221.1z M203.01,318.42c6.2,0,12.4,0,18.6,0
			c26.15,0,52.3,0.03,78.45-0.02c6.74-0.01,11.81-4.51,12.57-10.81c0.72-6.01-3.4-11.8-9.54-13.17c-1.68-0.37-3.48-0.31-5.22-0.31
			c-62.95-0.01-125.89-0.01-188.84-0.01c-1.21,0-2.43-0.06-3.64,0.05c-5.87,0.51-10.61,5.2-11.17,10.98
			c-0.55,5.66,2.96,10.97,8.61,12.62c1.89,0.55,3.97,0.65,5.97,0.65C140.2,318.43,171.6,318.42,203.01,318.42z"/>
		<path d="M435.72,50.81c5.19,2.11,10.81,3.55,15.49,6.48c9.31,5.82,14.99,14.78,15.63,25.69c0.79,13.42,0.19,26.93,0.19,40.82
			c-138.12,0-276.13,0-414.14,0c0-13.79,0-27.57,0-41.36c0.32-1.16,0.65-2.31,0.95-3.47c2.63-10.17,8.27-18.2,17.49-23.22
			c4.07-2.22,8.73-3.33,13.13-4.94C201.54,50.81,318.63,50.81,435.72,50.81z M114.2,75.15c-6.56,0.11-11.98,5.68-11.92,12.25
			c0.06,6.57,5.57,12.05,12.12,12.05c6.71,0,12.3-5.74,12.13-12.45C126.36,80.42,120.76,75.04,114.2,75.15z M175.09,87.25
			c-0.02-6.57-5.51-12.07-12.07-12.1c-6.55-0.03-12.1,5.43-12.18,11.99c-0.09,6.72,5.57,12.39,12.27,12.31
			C169.66,99.37,175.11,93.82,175.09,87.25z M223.65,87.15c-0.08-6.57-5.61-12.03-12.17-12c-6.56,0.03-12.05,5.53-12.08,12.1
			c-0.03,6.72,5.67,12.35,12.37,12.21C218.33,99.31,223.73,93.72,223.65,87.15z"/>
		<path d="M376.63,466.01c-4.08-1.94-8.52-3.38-12.16-5.94c-7.38-5.19-11-12.77-11.26-21.79c-0.19-6.84-0.04-13.68-0.04-20.72
			c19,0,37.62,0,56.38,0c0,8.12,0.8,16.13-0.18,23.93c-1.55,12.24-9.02,20.09-20.87,23.65c-0.74,0.22-1.44,0.58-2.16,0.88
			C383.11,466.01,379.87,466.01,376.63,466.01z"/>
		<path d="M353.44,286.17c18.86,0,37.41,0,56.17,0c0,35.53,0,70.87,0,106.54c-18.59,0-37.24,0-56.17,0
			C353.44,357.35,353.44,321.91,353.44,286.17z"/>
		<path d="M406.88,261.5c-17.13,0-33.82,0-50.97,0c2.11-8.58,4.15-16.93,6.22-25.26c2.38-9.55,4.78-19.1,7.19-28.65
			c1.77-7,6.14-10.84,12.25-10.79c5.97,0.05,10.34,3.85,12.03,10.57c4.27,17.01,8.52,34.02,12.76,51.03
			C406.6,259.31,406.68,260.26,406.88,261.5z"/>
	</g>
</g>
</svg>
