<?xml version="1.0" encoding="utf-8"?>
<!-- Generator: Adobe Illustrator 24.0.1, SVG Export Plug-In . SVG Version: 6.00 Build 0)  -->
<svg version="1.1" xmlns="http://www.w3.org/2000/svg" xmlns:xlink="http://www.w3.org/1999/xlink" x="0px" y="0px"
	 viewBox="0 0 520 520" style="enable-background:new 0 0 520 520;" xml:space="preserve">
<style type="text/css">
	.st0{display:none;}
	.st1{display:inline;fill:none;stroke:#000000;stroke-width:0.7946;stroke-miterlimit:10;}
</style>
<g id="Layer_2" class="st0">
	<rect x="52.68" y="52.68" class="st1" width="414.64" height="414.64"/>
</g>
<g id="Layer_1">
	<g>
		<path d="M410.2,467.32c-7.55-1.28-15.12-2.51-22.66-3.85c-37.1-6.58-72.36-18.74-105.51-36.49
			c-84.24-45.1-148.57-110.08-192.17-195.19C69.99,193,57.8,151.74,52.83,108.4c-0.87-7.56,1.99-12.88,8.82-16.11
			c26.84-12.67,53.68-25.32,80.55-37.93c7.42-3.48,14.63-1.51,19.08,5.38c16.8,25.96,33.54,51.95,50.23,77.98
			c4.44,6.93,3.63,13.54-2.25,19.46c-9.61,9.69-19.09,19.52-29.01,28.88c-5.67,5.35-7.08,11.29-5.7,18.66
			c5.36,28.71,18.3,53.77,36.76,76.08c20.21,24.42,44.37,43.91,74.02,55.62c10.7,4.22,22.19,6.5,33.4,9.33
			c5.42,1.36,9.99-0.86,13.88-4.79c9.78-9.9,19.66-19.71,29.51-29.54c6.83-6.82,12.95-7.54,21.02-2.36
			c25.45,16.34,50.88,32.69,76.3,49.08c7.76,5.01,9.78,11.95,5.88,20.25c-12.44,26.5-24.97,52.96-37.34,79.49
			c-2.21,4.75-5.83,7.57-10.48,9.44C415.06,467.32,412.63,467.32,410.2,467.32z"/>
	</g>
</g>
</svg>
