<?xml version="1.0" encoding="utf-8"?>
<!-- Generator: Adobe Illustrator 24.0.1, SVG Export Plug-In . SVG Version: 6.00 Build 0)  -->
<svg version="1.1" xmlns="http://www.w3.org/2000/svg" xmlns:xlink="http://www.w3.org/1999/xlink" x="0px" y="0px"
	 viewBox="0 0 520 520" style="enable-background:new 0 0 520 520;" xml:space="preserve">
<style type="text/css">
	.st0{display:none;}
	.st1{display:inline;fill:none;stroke:#808080;stroke-width:0.7946;stroke-miterlimit:10;}
</style>
<g id="Layer_2" class="st0">
	<rect x="52.68" y="52.68" class="st1" width="414.64" height="414.64"/>
</g>
<g id="Layer_1">
	<g>
		<path d="M295.5,158.79c-0.17,0.56-0.43,1.74-0.9,2.84c-12.07,28.22-24.18,56.43-36.24,84.65c-1.01,2.37-2.62,3.92-4.97,4.93
			c-28.23,12.06-56.45,24.16-84.67,36.26c-2.77,1.19-5.42,1.3-7.77-0.89c-2.07-1.93-2.36-4.59-0.9-7.98
			c12.08-28.21,24.13-56.44,36.36-84.59c0.83-1.91,2.77-3.87,4.67-4.7c28.23-12.28,56.55-24.39,84.85-36.51
			C291.01,150.61,295.56,153.21,295.5,158.79z M214.98,220c-0.04,6.93,5.34,12.42,12.23,12.46c6.93,0.04,12.42-5.35,12.46-12.23
			c0.04-6.93-5.34-12.41-12.23-12.46C220.51,207.72,215.02,213.1,214.98,220z"/>
	</g>
	<path d="M452.55,428.77c-30.47-31.7-60.97-63.38-91.45-95.07c-1.86-1.94-3.7-3.89-5.71-6.01c19.23-23.12,31.55-49.32,36.7-78.73
		c5.12-29.29,2.77-58.08-7.53-86c-10.34-28.01-26.97-51.82-49.91-70.97C272.76,40.32,183.78,39,120.65,91.52
		c-66.35,55.2-80.22,149.36-32.61,221.09c22.02,33.17,52.34,56.12,90.55,67.49c51.56,15.35,99.86,6.99,144.81-22.74
		c1.1,1.19,2.09,2.28,3.11,3.34c30.2,31.4,60.44,62.77,90.58,94.23c4.97,5.19,9.92,10.22,17.02,12.39c2.7,0,5.4,0,8.1,0
		c3.92-2.23,8.52-3.78,11.65-6.83C462.84,451.74,462.06,438.65,452.55,428.77z M227.49,343.8
		c-67.84,0.42-123.94-55.67-123.77-123.76c0.17-68.15,55.64-123.56,123.65-123.52c68.07,0.05,123.46,55.45,123.55,123.59
		C351,288.18,295.93,343.37,227.49,343.8z"/>
</g>
</svg>
