<?xml version="1.0" encoding="utf-8"?>
<!-- Generator: Adobe Illustrator 24.0.1, SVG Export Plug-In . SVG Version: 6.00 Build 0)  -->
<svg version="1.1" xmlns="http://www.w3.org/2000/svg" xmlns:xlink="http://www.w3.org/1999/xlink" x="0px" y="0px"
	 viewBox="0 0 520 520" style="enable-background:new 0 0 520 520;" xml:space="preserve">
<style type="text/css">
	.st0{display:none;}
	.st1{display:inline;fill:none;stroke:#808080;stroke-width:0.7946;stroke-miterlimit:10;}
</style>
<g id="Layer_2" class="st0">
	<rect x="52.68" y="52.68" class="st1" width="414.64" height="414.64"/>
</g>
<g id="Layer_1">
	<path d="M248.53,57.28c-7.68-1.89-15.66-2.61-23.5-3.9c-1.04-0.17-2.06-0.46-3.09-0.7h-21.87c-8.2,1.36-16.48,2.37-24.6,4.13
		C114.58,70.03,65.03,122.35,55.1,183.74c-0.88,5.43-1.62,10.89-2.42,16.33v21.87c1.3,7.94,2.35,15.94,3.96,23.82
		c3.04,14.9,8.55,28.93,16.04,42.14c1.45,2.54,1.74,4.75,0.95,7.56c-6.79,24.12-13.45,48.27-20.34,73.13
		c1.93-0.47,3.41-0.78,4.87-1.19c22.85-6.32,45.71-12.63,68.54-19.02c2.6-0.73,4.74-0.61,7.2,0.79
		c79.07,44.74,181.15,12.18,220.02-70.11C396.87,188.15,346.12,81.25,248.53,57.28z M202.23,322.89h-0.31
		c-10.64,0-18.15-8.45-18.15-19.4c0-11.57,7.82-19.71,18.77-19.71c10.96,0,18.46,8.14,18.46,19.71
		C221,314.44,213.81,322.89,202.23,322.89z M232.58,205.25c-13.77,16.27-18.77,30.35-17.83,46.3v0c0.17,4.27-3.25,7.83-7.53,7.83
		h-9.59c-3.93,0-7.21-3.03-7.51-6.95l-0.09-1.19c-1.88-16.58,3.75-35.35,19.4-53.81c14.08-16.9,21.9-29.1,21.9-43.18
		c0-15.96-10.01-26.6-29.72-26.91c-7.34,0-15.2,1.59-21.96,4.34c-5.53,2.25-11.83-0.36-13.95-5.94v0
		c-1.96-5.16,0.37-10.98,5.39-13.28c10.27-4.73,23.49-7.65,36.15-7.65c35.98,0,52.25,22.22,52.25,46
		C259.49,172.08,247.6,187.73,232.58,205.25z"/>
	<path d="M323.17,467.32c-8.58-1.64-17.34-2.62-25.7-5.02c-36.22-10.37-63.49-32.26-81.98-65.09c-0.46-0.82-0.86-1.68-1.25-2.54
		c-0.09-0.21-0.01-0.5-0.01-0.76c94.84-0.16,179.08-82.23,179.69-180.07c9.75,4.77,18.53,10.68,26.52,17.71
		c26.77,23.54,42.33,52.96,46.16,88.49c0.11,1.05,0.47,2.08,0.71,3.11c0,6.75,0,13.5,0,20.25c-0.23,0.9-0.58,1.8-0.67,2.71
		c-1.73,18.92-7.47,36.56-16.6,53.19c-0.83,1.5-0.83,3.87-0.36,5.61c5.13,18.96,10.43,37.88,15.67,56.81
		c0.41,1.48,0.75,2.97,1.22,4.81c-1.11-0.23-1.63-0.31-2.13-0.44c-19.32-5.34-38.67-10.6-57.94-16.11c-3.5-1-6.14-0.42-9.43,1
		c-10.47,4.5-21.07,8.82-31.92,12.26c-6.97,2.21-14.47,2.77-21.74,4.07C336.66,467.32,329.92,467.32,323.17,467.32z"/>
</g>
</svg>
