<?xml version="1.0" encoding="utf-8"?>
<!-- Generator: Adobe Illustrator 24.0.1, SVG Export Plug-In . SVG Version: 6.00 Build 0)  -->
<svg version="1.1" xmlns="http://www.w3.org/2000/svg" xmlns:xlink="http://www.w3.org/1999/xlink" x="0px" y="0px"
	 viewBox="0 0 520 520" style="enable-background:new 0 0 520 520;" xml:space="preserve">
<style type="text/css">
	.st0{display:none;}
	.st1{display:inline;fill:none;stroke:#808080;stroke-width:0.7946;stroke-miterlimit:10;}
</style>
<g id="Layer_2" class="st0">
	<rect x="52.68" y="52.68" class="st1" width="414.64" height="414.64"/>
</g>
<g id="Layer_1">
	<g>
		<path d="M270.41,53.79c7.22,1.31,14.51,2.32,21.64,3.99c50.63,11.85,91.15,55.58,99.25,106.9c5.7,36.12-1.45,69.42-22.59,99.33
			c-16.43,23.24-24.91,48.75-24.17,77.26c0.02,0.94-0.02,1.88-0.06,2.82c-0.01,0.25-0.14,0.49-0.3,1c-15.8,0-31.68,0-47.8,0
			c-1.66-44.83,6.79-87.05,27.72-126.55c2.86-5.4,1.03-12.09-4.2-15.24c-0.29-0.17-0.57-0.34-0.86-0.52
			c-0.03-0.02-0.07-0.04-0.1-0.06c-5.67-3.4-13.05-1.31-16.09,4.57c-2.13,4.11-4.2,8.18-6.19,12.3c-1.71,3.55-3.62,4.04-10,2.92
			c-18-3.17-36.42-3.3-54.37,0.1c-5.9,1.12-7.52,0.17-9.1-3.09c-1.97-4.06-4.01-8.08-6.11-12.16c-3.03-5.88-10.39-8-16.08-4.62
			l-0.94,0.56c-5.27,3.13-7.12,9.85-4.24,15.27c20.84,39.31,29.33,81.53,27.69,126.47h-47.87c-0.3-6.49-0.39-13.03-0.93-19.52
			c-1.79-21.49-9.18-41.02-21.64-58.51c-13.81-19.39-23.06-40.54-25.43-64.32c-4.61-46.31,10.15-85.4,45.01-116.37
			c21.08-18.72,46.05-29.08,74.15-31.83c0.91-0.09,1.78-0.45,2.68-0.69H270.41z"/>
		<path d="M201.2,418.05c39.12,0,78.22,0,117.32,0c-0.19,22.61-29.03,47.29-56.08,48.13C227.06,467.27,204.19,439.94,201.2,418.05z"
			/>
		<path d="M332.39,393.53H187.42c-6.54,0-11.84-5.3-11.84-11.84v0c0-6.54,5.3-11.84,11.84-11.84h144.97
			c6.54,0,11.84,5.3,11.84,11.84v0C344.24,388.23,338.93,393.53,332.39,393.53z"/>
		<path d="M272.15,345.25c-8.37,0-16,0-24.37,0c0.91-33.31-2.86-66.01-13.51-97.97c17.27,0,34.02,0,51.33,0
			C275.06,279.13,271.15,311.7,272.15,345.25z"/>
	</g>
</g>
</svg>
