<?xml version="1.0" encoding="utf-8"?>
<!-- Generator: Adobe Illustrator 24.0.1, SVG Export Plug-In . SVG Version: 6.00 Build 0)  -->
<svg version="1.1" xmlns="http://www.w3.org/2000/svg" xmlns:xlink="http://www.w3.org/1999/xlink" x="0px" y="0px"
	 viewBox="0 0 520 520" style="enable-background:new 0 0 520 520;" xml:space="preserve">
<style type="text/css">
	.st0{display:none;}
	.st1{display:inline;fill:none;stroke:#808080;stroke-width:0.7946;stroke-miterlimit:10;}
</style>
<g id="Layer_2" class="st0">
	<rect x="52.68" y="52.68" class="st1" width="414.64" height="414.64"/>
</g>
<g id="Layer_1">
	<g>
		<path d="M467.8,376.87c-0.63,2.75-1.19,5.52-1.9,8.26c-7.24,28.11-33.35,47.23-62.19,45.57c-29.36-1.68-52.91-23.28-57.02-52.28
			c-4.69-33.11,18.16-63.68,51.4-68.75c32.84-5.02,63.83,17.98,68.96,51.16c0.12,0.77,0.49,1.5,0.74,2.24
			C467.8,367.67,467.8,372.27,467.8,376.87z"/>
		<path d="M113.09,430.8c-33.68,0-60.92-27.21-60.88-60.81c0.04-33.61,27.35-60.96,60.85-60.94c33.55,0.02,60.92,27.39,60.9,60.9
			C173.93,403.6,146.72,430.8,113.09,430.8z"/>
		<path d="M260.06,174.3c-33.58,0.04-60.91-27.22-60.93-60.77c-0.02-33.59,27.22-60.86,60.81-60.88
			c33.63-0.02,60.91,27.18,60.94,60.76C320.9,146.99,293.66,174.25,260.06,174.3z"/>
		<g>
			<path d="M339.21,435.03c-3.54-6.99-11.68-10.07-18.94-7.16c-40.61,16.22-80.03,16.23-120.51,0.01
				c-7.27-2.91-15.43,0.17-18.97,7.17l-0.14,0.28c-1.87,3.7-2.13,8.06-0.7,11.95c1.45,3.95,4.37,7.02,8.24,8.66
				c22.58,9.56,46.74,14.41,71.8,14.41c4.59,0,9.28-0.17,13.94-0.49c20.15-1.41,39.65-6.09,57.95-13.89
				c3.86-1.65,6.77-4.72,8.21-8.67c1.42-3.89,1.16-8.24-0.71-11.94L339.21,435.03z"/>
			<path d="M444.05,261.09c-7.31-51.18-30.7-91.71-71.49-123.91c-3.29-2.6-7.56-3.7-11.72-3.03c-4.15,0.67-7.85,3.08-10.15,6.59
				l-0.16,0.25c-4.24,6.47-2.8,15.27,3.28,20.03c33.96,26.62,54.23,61.72,60.27,104.34c1.06,7.47,7.3,12.89,14.84,12.89
				c0.28,0,0.56-0.01,0.84-0.02l0.23-0.01c4.2-0.23,8.13-2.22,10.8-5.47S444.65,265.25,444.05,261.09z"/>
			<path d="M169.32,140.73c-2.3-3.51-6-5.91-10.15-6.58c-4.14-0.68-8.41,0.43-11.71,3.02c-40.26,31.7-64.32,73.38-71.53,123.88
				c-0.59,4.16,0.59,8.4,3.26,11.65c2.66,3.25,6.6,5.25,10.8,5.48l0.23,0.01c0.29,0.02,0.57,0.02,0.86,0.02
				c7.53,0,13.77-5.42,14.83-12.89c6.06-42.65,26.34-77.74,60.28-104.32c6.09-4.77,7.53-13.58,3.28-20.05L169.32,140.73z"/>
		</g>
	</g>
</g>
</svg>
