<?xml version="1.0" encoding="utf-8"?>
<!-- Generator: Adobe Illustrator 24.0.1, SVG Export Plug-In . SVG Version: 6.00 Build 0)  -->
<svg version="1.1" xmlns="http://www.w3.org/2000/svg" xmlns:xlink="http://www.w3.org/1999/xlink" x="0px" y="0px"
	 viewBox="0 0 520 520" style="enable-background:new 0 0 520 520;" xml:space="preserve">
<style type="text/css">
	.st0{display:none;}
	.st1{display:inline;fill:none;stroke:#808080;stroke-width:0.7946;stroke-miterlimit:10;}
</style>
<g id="Layer_2" class="st0">
	<rect x="52.68" y="52.68" class="st1" width="414.64" height="414.64"/>
</g>
<g id="Layer_1">
	<g>
		<path d="M468.13,207.06c-1.59,6.09-2.71,12.35-4.83,18.25c-9.61,26.74-35.46,45.76-63.85,47.02c-9.14,0.41-18.32,0.21-27.47,0.16
			c-2.26-0.01-3.52,0.43-4.42,2.87c-8.19,22.06-24.87,33.53-48.47,33.54c-38.66,0.01-77.32,0.02-115.98,0
			c-23.31-0.01-40.12-11.7-48.31-33.35c-0.46-1.21-1.96-2.88-2.97-2.88c-10.89,0.03-21.89-0.51-32.66,0.78
			c-22.99,2.76-40.62,23.99-40.6,47.63c0.02,23.64,17.64,44.77,40.7,47.53c10.77,1.29,21.77,0.74,32.66,0.77
			c0.99,0,2.47-1.75,2.9-2.97c4.96-13.99,14.04-24.27,27.91-29.49c6.04-2.27,12.81-3.55,19.26-3.6
			c39.47-0.32,78.94-0.22,118.41-0.14c22.35,0.05,39.38,12.14,47.09,33.23c0.69,1.89,1.24,3.22,3.78,3.19
			c13.2-0.14,26.39-0.07,40.06-0.78c-5.99-4.52-11.98-9.05-18.34-13.86c4.85-6.46,9.56-12.75,14.53-19.37
			c20.21,15.36,40.18,30.54,60.6,46.06c-20.36,15.48-40.26,30.61-60.58,46.06c-4.81-6.39-9.54-12.69-14.56-19.36
			c6.19-4.66,12.24-9.22,18.29-13.78c-0.13-0.4-0.13-0.39-0.26-0.79c-6.38,0-12.76,0-19.14,0c-6.6,0-13.2,0.12-19.8-0.06
			c-2.55-0.07-3.75,0.68-4.62,3.18c-5.98,17.06-17.84,27.83-35.46,31.96c-3.89,0.91-8,1.23-12.01,1.23
			c-39.2,0.09-78.4,0.09-117.6,0.04c-22.63-0.03-39.67-11.98-47.41-33.31c-0.92-2.54-2.19-3.08-4.67-3.11
			c-11.17-0.13-22.49,0.62-33.47-0.96c-27.53-3.98-47.15-19.42-57.28-45.24c-10.46-26.66-5.94-51.76,12.45-73.71
			c14.39-17.19,33.44-25.27,55.81-25.5c7.68-0.08,15.36-0.1,23.03,0.04c1.76,0.03,3.34-1.04,3.95-2.69
			c8.22-22.19,24.89-33.72,48.54-33.73c38.8-0.01,77.59-0.03,116.39,0.01c22.95,0.02,39.81,11.85,47.92,33.32
			c0.46,1.21,1.95,2.9,2.95,2.9c10.89-0.03,21.89,0.51,32.66-0.78c23.01-2.76,40.63-23.97,40.62-47.61
			c-0.01-23.64-17.63-44.79-40.68-47.56c-10.77-1.29-21.77-0.75-32.66-0.77c-0.99,0-2.48,1.73-2.92,2.95
			c-4.96,13.98-14.03,24.28-27.9,29.5c-6.04,2.27-12.8,3.56-19.25,3.62c-39.47,0.32-78.94,0.22-118.41,0.14
			c-22.35-0.04-39.45-12.14-47.07-33.22c-0.9-2.49-2.12-3.06-4.64-3.24c-4.42-0.31-8.79,1.11-12.29,3.83
			c-13.04,10.14-26.36,19.91-40.09,30.21c-4.78-6.34-9.51-12.62-14.57-19.34c6.15-4.64,12.21-9.2,19.04-14.35H66.84
			c-6.74,0-12.21-5.47-12.21-12.21v0c0-6.74,5.47-12.21,12.21-12.21l34.58,0c0.14-0.42,0.14-0.41,0.28-0.82
			c-5.95-4.5-11.9-8.99-18.27-13.81c4.81-6.42,9.53-12.7,14.45-19.27c1.58,1.12,2.98,2.08,4.34,3.09
			c12.82,9.61,25.71,19.13,38.41,28.9c3.98,3.06,8.24,1.47,12.4,1.63c0.57,0.02,1.42-1.73,1.8-2.78
			c6.13-16.99,17.82-27.9,35.46-32.02c4.15-0.97,8.53-1.28,12.81-1.29c38.66-0.1,77.32-0.07,115.98-0.05
			c23.61,0.01,40.3,11.48,48.48,33.54c0.9,2.43,2.16,2.84,4.42,2.87c11.03,0.15,22.16-0.37,33.08,0.87
			c31.66,3.59,57.42,29.12,62.19,60.67c0.2,1.31,0.59,2.59,0.89,3.89V207.06z"/>
	</g>
</g>
</svg>
