<?xml version="1.0" encoding="utf-8"?>
<!-- Generator: Adobe Illustrator 24.0.1, SVG Export Plug-In . SVG Version: 6.00 Build 0)  -->
<svg version="1.1" xmlns="http://www.w3.org/2000/svg" xmlns:xlink="http://www.w3.org/1999/xlink" x="0px" y="0px"
	 viewBox="0 0 520 520" style="enable-background:new 0 0 520 520;" xml:space="preserve">
<style type="text/css">
	.st0{display:none;}
	.st1{display:inline;fill:none;stroke:#808080;stroke-width:0.7946;stroke-miterlimit:10;}
</style>
<g id="Layer_2" class="st0">
	<rect x="52.68" y="52.68" class="st1" width="414.64" height="414.64"/>
</g>
<g id="Layer_1">
	<g>
		<path d="M52.68,306.58c1.6-5,5.15-7.97,9.84-10c3.95-1.71,7.73-3.83,11.61-5.71c14.19-6.87,27.61-2.44,34.72,11.62
			c7.67,15.16,15.19,30.39,22.77,45.6c12.4,24.86,24.8,49.71,37.18,74.57c7.76,15.59,3.41,28.66-12.08,36.37
			c-3.86,1.92-7.73,3.84-11.6,5.73c-8.84,4.32-14.84,2.31-19.26-6.52c-22.8-45.59-45.58-91.18-68.37-136.77
			c-1.55-3.1-3.21-6.14-4.82-9.21C52.68,310.36,52.68,308.47,52.68,306.58z"/>
		<path d="M125.04,279.79c14.64-13.47,29.57-26.48,49.3-32.03c30.56-8.59,58.26-3.15,82.29,17.92c5.56,4.87,11.19,7.14,18.59,7
			c19.03-0.37,38.07-0.26,57.1-0.08c17.77,0.17,29.22,16.33,23.41,32.67c-3.41,9.59-12.48,15.81-23.59,15.87
			c-15.66,0.1-31.32-0.05-46.98,0.06c-9.22,0.06-14.97,7.83-12.14,16.12c1.63,4.76,5.71,8.04,11.01,8.07
			c19.17,0.12,38.35,0.31,57.51-0.1c7.79-0.17,14.47-3.8,19.55-10.05c21.09-25.99,42.21-51.96,63.37-77.9
			c6.73-8.25,17.24-11.12,26.97-7.6c9.72,3.51,16.58,12.66,15.82,23.01c-0.37,5-2.11,10.5-4.94,14.61
			c-23.29,33.93-46.65,67.81-70.67,101.23c-14.12,19.65-34.22,29.51-58.37,29.69c-45.49,0.35-90.99,0.13-136.49,0.01
			c-1.35,0-3.36-1.11-3.94-2.27c-22.55-44.94-44.96-89.95-67.38-134.95C125.29,280.73,125.22,280.34,125.04,279.79z"/>
		<g>
			<path d="M265.96,65.54c1.32,0.6,2.38,0.95,3.3,1.53c1.15,0.73,2.2,1.63,3.28,2.48c8.15,6.44,8.19,6.52,17.44,2.13
				c1.26-0.6,2.45-2.35,2.75-3.76c0.75-3.52,0.99-7.15,1.4-10.74c0.36-3.13,2.13-4.65,5.24-4.65c11.22-0.01,22.45-0.01,33.67,0
				c3.13,0,4.83,1.62,5.18,4.72c0.38,3.34,0.97,6.67,1.16,10.02c0.14,2.61,1.51,3.65,3.64,4.92c6.19,3.7,11.01,2.93,16.39-2.07
				c6.58-6.12,6.98-5.68,13.28,0.61c6.7,6.7,13.42,13.39,20.1,20.11c3.18,3.2,3.25,4.77,0.5,8.38c-2.12,2.78-4.43,5.42-6.34,8.32
				c-0.66,1.01-0.9,2.8-0.49,3.94c3.61,10.06,3.66,10.04,14.48,11.08c7.02,0.67,7.76,1.48,7.76,8.54c0,9.85,0.03,19.7-0.01,29.55
				c-0.02,4.71-1.09,5.89-5.77,6.58c-1.97,0.29-3.97,0.41-5.93,0.76c-2.27,0.4-5.57,0.22-6.56,1.61c-2.17,3.07-3.27,6.93-4.56,10.56
				c-0.22,0.63,0.63,1.78,1.19,2.53c2.16,2.9,4.37,5.76,6.64,8.58c2.19,2.73,1.92,5.14-0.53,7.58c-7.71,7.64-15.39,15.3-23.01,23.02
				c-2.54,2.57-5,2.91-7.86,0.55c-2.78-2.3-5.59-4.61-8.59-6.61c-1-0.67-2.8-0.92-3.93-0.51c-10.14,3.65-10.12,3.7-11.15,14.41
				c-0.68,7.08-1.44,7.79-8.49,7.79c-9.85,0-19.7,0.02-29.55-0.01c-4.82-0.01-5.93-0.99-6.62-5.68c-0.35-2.34-0.52-4.71-0.91-7.04
				c-0.32-1.92-0.22-4.8-1.38-5.5c-3.35-2.04-7.22-3.27-10.96-4.62c-0.52-0.19-1.51,0.69-2.18,1.21c-2.98,2.26-5.93,4.56-8.88,6.86
				c-2.46,1.92-4.77,1.8-6.99-0.42c-7.93-7.94-15.86-15.88-23.8-23.81c-2.23-2.23-2.29-4.53-0.36-6.98
				c2.32-2.94,4.72-5.81,6.81-8.91c0.68-1.01,1.01-2.8,0.62-3.92c-3.56-10.2-3.62-10.18-14.38-11.21c-7.23-0.69-7.91-1.44-7.91-8.77
				c0-9.73-0.02-19.45,0.01-29.18c0.02-4.96,1.03-6.07,5.98-6.76c2.22-0.31,4.47-0.89,6.67-0.76c4.54,0.27,6.22-2.24,8.02-5.98
				c2.37-4.93,1.74-8.37-1.78-12.51c-7.67-9.03-7.52-8.21,1.02-16.68c6.2-6.15,12.32-12.37,18.55-18.49
				C263.22,67.25,264.65,66.48,265.96,65.54z M352.1,145.36c0.13-19.89-15.82-36.14-35.58-36.28
				c-19.86-0.14-36.17,15.85-36.29,35.58c-0.13,19.86,15.83,36.13,35.59,36.28C335.66,181.1,351.97,165.11,352.1,145.36z"/>
		</g>
	</g>
</g>
</svg>
